<svg id="Capa_1" enable-background="new 0 0 512 512" height="512" viewBox="0 0 512 512" width="512" xmlns="http://www.w3.org/2000/svg"><g><path d="m414.957 152.295c-105.971-7.058-211.943-7.058-317.914 0-31.779 2.116-57.418 26.877-60.365 58.59-7.348 79.078-7.348 158.155 0 237.233 2.947 31.713 28.585 56.473 60.365 58.59 105.971 7.058 211.943 7.058 317.914 0 31.779-2.116 57.418-26.877 60.365-58.59 7.348-79.078 7.348-158.155 0-237.233-2.947-31.713-28.586-56.474-60.365-58.59z" fill="#dd636e"/><path d="m110.588 455.924c1.311 22.57 9.313 41.832 20.767 52.815-11.434-.594-22.878-1.281-34.311-2.039-31.771-2.11-57.415-26.873-60.365-58.583-7.346-79.083-7.346-158.156 0-237.24 2.951-31.709 28.595-56.472 60.365-58.583 11.434-.758 22.878-1.445 34.311-2.039-11.454 10.983-19.456 30.244-20.767 52.815-4.867 84.288-4.867 168.566 0 252.854z" fill="#da4a54"/><ellipse cx="256" cy="334.45" fill="#f9efda" rx="151.502" ry="119.693"/><path d="m392.15 101.043h-.035c6.388-4.227 11.007-10.981 12.367-18.978 3.195-18.792 3.195-37.583 0-56.375-2.261-13.298-13.497-23.212-26.978-23.662-81.002-2.703-162.005-2.703-243.007 0-13.481.45-24.717 10.364-26.978 23.662-3.195 18.792-3.195 37.583 0 56.375 1.36 7.997 5.979 14.751 12.367 18.978h-.035c-46.169 29.259-109 46.069-88.683 85.358 20.318 39.29 74.087-23.107 106.006-18.037s-12.519 84.01 25.385 84.01c37.903 0 58.797-65.97 93.442-65.97s55.539 65.97 93.442 65.97-6.535-78.941 25.385-84.01 85.689 57.327 106.006 18.037c20.316-39.29-42.515-56.099-88.684-85.358z" fill="#ffe07d"/><path d="m180.321 82.061c.7 7.994 3.049 21.903 6.305 26.127l-.02-7.151c-19.718 24.508-45.38 40.29-47.09 67.868-.731-.237-1.504-.412-2.339-.546-31.925-5.068-85.69 57.33-106.005 18.038-20.325-39.291 42.505-56.104 88.678-85.361h.031c-6.387-4.224-11.003-10.982-12.362-18.976-3.194-18.79-3.194-37.581 0-56.371 2.256-13.3 13.495-23.22 26.98-23.663 17.873-.597 35.747-1.061 53.611-1.391-4.028 5.635-6.995 15.885-7.788 25.054-1.629 18.791-1.629 37.581-.001 56.372z" fill="#ffd064"/><path d="m255.982 118.411c-48.998 0-97.996-3.236-146.651-9.709-4.229-.563-7.202-4.448-6.64-8.678.563-4.23 4.456-7.198 8.678-6.64 95.958 12.766 193.269 12.766 289.226 0 4.228-.561 8.115 2.409 8.678 6.64.562 4.229-2.41 8.115-6.64 8.678-48.655 6.473-97.653 9.709-146.651 9.709z" fill="#f9efda"/><path d="m295.152 50.917c-8.971-6.325-19.055-6.695-27.661-1.01-4.739 3.13-8.613 7.796-11.509 13.51-2.896-5.715-6.77-10.38-11.509-13.51-8.605-5.684-18.687-5.316-27.66 1.01-9.408 6.633-10.932 14.354-10.553 19.663 1.314 18.417 28.305 35.061 39.371 41.137.384 1.76.974 3.937 1.864 6.366-3.573 6.15-10.181 12.929-22.36 15.811-4.152.983-6.721 5.145-5.739 9.298.842 3.554 4.012 5.949 7.513 5.949.589 0 1.187-.067 1.786-.209 12.525-2.964 21.293-9.194 27.258-16.215 5.539 6.563 14.119 13.091 27.318 16.215.599.142 1.197.209 1.787.209 3.499 0 6.67-2.394 7.512-5.949.982-4.152-1.588-8.315-5.739-9.298-12.143-2.874-18.748-9.62-22.328-15.756.85-2.274 1.469-4.452 1.889-6.452 11.103-6.103 38.003-22.722 39.314-41.105.378-5.31-1.145-13.031-10.554-19.664zm-73.478 18.56c-.057-.802-.208-2.934 4.043-5.932 2.307-1.626 4.251-2.188 5.875-2.188 1.847 0 3.282.727 4.365 1.442 7.752 5.121 10.982 18.42 10.458 31.426-11.849-7.476-24.246-17.755-24.741-24.748zm68.618 0c-.496 6.993-12.893 17.272-24.742 24.748-.524-13.005 2.706-26.304 10.458-31.425 1.083-.715 2.518-1.443 4.366-1.443 1.625 0 3.568.562 5.875 2.188 4.251 2.998 4.1 5.13 4.043 5.932z" fill="#f9efda"/><g><path d="m256.819 291.996c40.794 0 64.267-26.006 54.937-35.336s-19.529 8.804-27.463 8.804 3.393-15.977-4.927-19.165-15.032 18.066-23.366 18.066-15.045-21.254-23.366-18.066c-8.32 3.188 3.007 19.165-4.927 19.165s-18.133-18.133-27.463-8.804c-9.33 9.33 14.143 35.336 54.937 35.336" fill="#b3e59f"/><path d="m255.623 291.995h-.44c-40.796 0-64.27-26.008-54.939-35.335 9.331-9.331 19.529 8.803 27.465 8.803.783 0 1.378-.155 1.822-.44 1.675 11.371 11.48 26.972 26.092 26.972z" fill="#95d6a4"/><path d="m255.999 289.902c-38.217 0-69.199.613-69.199 38.83 0 8.183 1.419 17.424 4.028 26.898 5.244 19.06 15.293 39.061 28.254 53.237 1.788 1.961 3.635 3.807 5.53 5.53 9.421 8.54 20.084 13.903 31.387 13.903 16.76 0 32.124-11.798 44.099-28.266 15.334-21.09 25.102-49.842 25.102-71.299 0-38.218-30.982-38.836-69.201-38.833z" fill="#dd636e"/><path d="m255.997 428.301c-38.22 0-69.198-61.347-69.198-99.566 0-38.22 30.978-38.834 69.198-38.834-17.898 0-32.408.614-32.408 38.834.001 38.219 14.511 99.566 32.408 99.566z" fill="#da4a54"/><g fill="#664545"><g><path d="m218.75 346.496c-4.268 0-7.726-3.459-7.726-7.726v-10.036c0-4.267 3.459-7.726 7.726-7.726s7.726 3.459 7.726 7.726v10.036c0 4.267-3.458 7.726-7.726 7.726z"/><path d="m256.001 346.496c-4.268 0-7.726-3.459-7.726-7.726v-10.036c0-4.267 3.459-7.726 7.726-7.726s7.726 3.459 7.726 7.726v10.036c0 4.267-3.459 7.726-7.726 7.726z"/><path d="m293.25 346.496c-4.268 0-7.726-3.459-7.726-7.726v-10.036c0-4.267 3.459-7.726 7.726-7.726 4.268 0 7.726 3.459 7.726 7.726v10.036c0 4.267-3.458 7.726-7.726 7.726z"/></g><g><path d="m237.375 389.457c-4.268 0-7.726-3.459-7.726-7.726v-10.036c0-4.267 3.459-7.726 7.726-7.726 4.268 0 7.726 3.459 7.726 7.726v10.036c0 4.267-3.459 7.726-7.726 7.726z"/><path d="m274.625 389.457c-4.268 0-7.726-3.459-7.726-7.726v-10.036c0-4.267 3.459-7.726 7.726-7.726s7.726 3.459 7.726 7.726v10.036c.001 4.267-3.458 7.726-7.726 7.726z"/></g></g></g></g></svg>