<svg height="512" viewBox="0 0 57 60" width="512" xmlns="http://www.w3.org/2000/svg"><g id="009---Sauces" fill="none"><g id="Icons" transform="translate(5 1)"><path id="Shape" d="m45 0h-14c-1.1045695 0-2 .8954305-2 2v6c0 .55228475.4477153 1 1 1h16c.5522847 0 1-.44771525 1-1v-6c0-1.1045695-.8954305-2-2-2z" fill="#7f8e94"/><path id="Shape" d="m49.83 22.06c1.3428281-3.133112.908019-6.7450787-1.14-9.47l-2.69-3.59h-16c-2.78 3.7-3.67 4.6-4.27 6.84-.5637033 2.063163-.4085308 4.2567378.44 6.22.548465 1.2778399.8112538 2.6600407.77 4.05l-.85 28.8c-.0243448.8111261.2809454 1.5975154.8462148 2.1797429s1.3422939.9106224 2.1537852.9102571h17.82c.8114913.0003653 1.5885158-.3280296 2.1537852-.9102571s.8705596-1.3686168.8462148-2.1797429l-.85-28.8c-.0412538-1.3899593.221535-2.7721601.77-4.05zm-5.21 22.94c-4.4133333.1333333-8.8266667.1333333-13.24 0-.5522847 0-1-.4477153-1-1l.62-18c0-.5522847.4477153-1 1-1 4 .1066667 8 .1066667 12 0 .5522847 0 1 .4477153 1 1l.57 18c.0006671.5333335-.4173332.9733337-.95 1z" fill="#ff9801"/><path id="Shape" d="m0 46v10c0 1.1045695.8954305 2 2 2h15c1.1045695 0 2-.8954305 2-2v-10z" fill="#f44335"/><path id="Rectangle-path" d="m0 33h19v13h-19z" fill="#ffdc00"/><path id="Shape" d="m17 20h-15c-1.1045695 0-2 .8954305-2 2v11h19v-11c0-1.1045695-.8954305-2-2-2z" fill="#f44335"/><path id="Shape" d="m0 46v10c0 1.1045695.8954305 2 2 2h15c1.1045695 0 2-.8954305 2-2v-10z" fill="#f44335"/><path id="Shape" d="m7.8 4-1.8 10h6l-1.8-10z" fill="#c81e1e"/><path id="Shape" d="m5 14h9c1.1045695 0 2 .8954305 2 2v4h-13v-4c0-1.1045695.8954305-2 2-2z" fill="#f44335"/><rect id="Rectangle-path" fill="#f44335" height="4" rx="1" width="6" x="6"/><path id="Shape" d="m19 46v10c0 1.1045695-.8954305 2-2 2h-3c1.1045695 0 2-.8954305 2-2v-10z" fill="#c81e1e"/><path id="Shape" d="m19 22v11h-3v-11c0-1.1045695-.8954305-2-2-2h3c1.1045695 0 2 .8954305 2 2z" fill="#c81e1e"/><path id="Rectangle-path" d="m16 33h3v13h-3z" fill="#fec108"/><path id="Shape" d="m49.06 26.11.85 28.8c.0243448.8111261-.2809454 1.5975154-.8462148 2.1797429s-1.3422939.9106224-2.1537852.9102571h-1.1c.5153567-.5720435.7910433-1.3203355.77-2.09l-.85-28.8c-.0412538-1.3899593.221535-2.7721601.77-4.05 1.3428281-3.133112.908019-6.7450787-1.14-9.47-3.16-4.22-2.47-3.26-3.36-4.59h4l2.69 3.59c2.048019 2.7249213 2.4828281 6.336888 1.14 9.47-.548465 1.2778399-.8112538 2.6600407-.77 4.05z" fill="#f57c00"/><path id="Shape" d="m45.6 44c0 .5522847-.4477153 1-1 1-4.4.1333333-8.8066667.1333333-13.22 0-.5522847 0-1-.4477153-1-1l.62-18c0-.5522847.4477153-1 1-1 4 .1066667 8 .1066667 12 0 .5522847 0 1 .4477153 1 1z" fill="#ffdc00"/><path id="Shape" d="m47 2v6c0 .55228475-.4477153 1-1 1h-3c.4706972.01371362.8871845-.30281672 1-.76 0-.18 0-.05 0-6.24 0-1.1045695-.8954305-2-2-2h3c1.1045695 0 2 .8954305 2 2z" fill="#545c60"/></g><g id="Layer_2" fill="#000"><path id="Shape" d="m7 17.93v2.07c-1.65685425 0-3 1.3431458-3 3v34c0 1.6568542 1.34314575 3 3 3h15c1.6568542 0 3-1.3431458 3-3v-34c0-1.6568542-1.3431458-3-3-3v-3c0-1.6568542-1.3431458-3-3-3h-1.16l-1.45-8c.9502315-.18873697 1.6285624-1.03138394 1.61-2v-2c0-1.1045695-.8954305-2-2-2h-4c-.7102221.00428692-1.3648954.38491093-1.72 1h-2.28c-4.418278 0-8 3.581722-8 8v1c.00365334 4.0288573 3.00274019 7.4263943 7 7.93zm16 28.07h-17v-11h17zm-1 12h-15c-.55228475 0-1-.4477153-1-1v-9h17v9c0 .5522847-.4477153 1-1 1zm1-35v10h-17v-10c0-.5522847.44771525-1 1-1h15c.5522847 0 1 .4477153 1 1zm-3-6v3h-11v-3c0-.5522847.44771525-1 1-1h9c.5522847 0 1 .4477153 1 1zm-7.8-3 1.44-8h.72l1.44 8zm3.8-12v2h-4v-2zm-14 7c0-3.3137085 2.6862915-6 6-6h2v1c-.01856236.96861606.6597685 1.81126303 1.61 2l-1.45 8c-1.31801008-.0841773-2.53603962.7034818-3 1.94-2.95939322-.418436-5.15954718-2.9511714-5.16-5.94z"/><path id="Shape" d="m11 24h-2c-.55228475 0-1 .4477153-1 1s.44771525 1 1 1h2c.5522847 0 1-.4477153 1-1s-.4477153-1-1-1z"/><path id="Shape" d="m20 24h-5c-.5522847 0-1 .4477153-1 1s.4477153 1 1 1h5c.5522847 0 1-.4477153 1-1s-.4477153-1-1-1z"/><path id="Shape" d="m30.94 27.08-.85 28.8c-.0324598 1.0815015.3745939 2.1300206 1.1282864 2.9063239.7536925.7763032 1.7897252 1.2141631 2.8717136 1.2136761h17.82c1.0819884.000487 2.1180211-.4373729 2.8717136-1.2136761.7536925-.7763033 1.1607462-1.8248224 1.1282864-2.9063239l-.85-28.8c-.0336384-1.2422976.2017398-2.4771803.69-3.62 1.4742601-3.4606996.9982265-7.4441483-1.25-10.46l-2-2.67c.3238379-.36719059.5017405-.84041151.5-1.33v-6c0-1.65685425-1.3431458-3-3-3h-14c-1.6568542 0-3 1.34314575-3 3v6c.0034573.48744864.1848185.95685389.51 1.32l-2.01 2.68c-2.2519672 3.0181647-2.7281299 7.0065037-1.25 10.47.486844 1.1397377.7221929 2.3710558.69 3.61zm4.06-21.08h16v3h-16zm1-4h14c.5522847 0 1 .44771525 1 1v1h-16v-1c0-.55228475.4477153-1 1-1zm-2.9 12.19 2.4-3.19h15l2.4 3.19c1.8200062 2.4467605 2.2009303 5.676997 1 8.48-.5999271 1.4120109-.8897888 2.9363429-.85 4.47l.85 28.8c.0162299.5407508-.187297 1.0650103-.5641432 1.4531619-.3768463.3881517-.8948626.6070816-1.4358568.6068381h-17.81c-.5409942.0002435-1.0590105-.2186864-1.4358568-.6068381-.3768462-.3881516-.5803731-.9124111-.5641432-1.4531619l.85-28.8c.0397888-1.5336571-.2500729-3.0579891-.85-4.47-1.1980828-2.8047487-.8133342-6.0351135 1.01-8.48z"/><path id="Shape" d="m37 25c-1.1045695 0-2 .8954305-2 2l-.6 18c-.0189977.5424546.1832991 1.0693335.5604507 1.4596853.3771515.3903519.8967623.6106473 1.4395493.6103147 4.39.12 8.91.12 13.3 0 .542787.0003326 1.0623978-.2199628 1.4395493-.6103147.3771516-.3903518.5794484-.9172307.5604507-1.4596853l-.7-18c0-1.1045695-.8954305-2-2-2-6.9.22-11.56 0-12 0zm12 2 .56 18c-4.37.12-8.81.12-13.19 0l.63-18c4 .14 8 .14 12 0z"/><path id="Shape" d="m35.18 22c.3317301.0003213.642028-.1638849.828344-.4383504.186316-.2744656.2243964-.6234617.101656-.9316496-.7377855-1.6901578-.2594501-3.6648247 1.17-4.83.4418278-.3313708.5313708-.9581722.2-1.4s-.9581722-.5313708-1.4-.2c-2.1494506 1.7088111-2.8976037 4.6400997-1.83 7.17.1516273.380721.5201962.6303967.93.63z"/><path id="Shape" d="m37 54h-2c-.5522847 0-1 .4477153-1 1s.4477153 1 1 1h2c.5522847 0 1-.4477153 1-1s-.4477153-1-1-1z"/><path id="Shape" d="m41 54c-.5522847 0-1 .4477153-1 1s.4477153 1 1 1h10c.5522847 0 1-.4477153 1-1s-.4477153-1-1-1z"/></g></g></svg>