<svg id="Capa_1" enable-background="new 0 0 501 501" height="512" viewBox="0 0 501 501" width="512" xmlns="http://www.w3.org/2000/svg"><g><path d="m24.384 249.035c-13.774 0-24.405-11.998-22.896-25.69 3.867-35.068 15.135-67.906 32.207-96.919.794-1.349 7.906.832 8.725-.5 13.352-21.727 30-41.212 49.246-57.759 1.183-1.017-3.931-5.545-2.729-6.539 42.383-35.06 96.763-56.128 156.063-56.128 92.046 0 172.236 50.759 214.105 125.813 29.433 52.761-8.664 117.721-69.08 117.721h-365.641z" fill="#3342ae"/><path d="m478.897 250.5c0 18.674-2.017 36.86-5.974 54.337-2.421 10.69-.529 18.511-11.463 19.284-3.538.25-7.138.379-10.787.379-26.487 0-50.343-6.777-67.039-17.607-16.696 10.83-40.552 17.607-67.039 17.607s-50.343-6.777-67.039-17.607c-16.696 10.83-40.552 17.607-67.039 17.607-29.904 0-56.455-8.639-73.133-21.995-16.679 13.356-43.23 21.995-73.134 21.995-2.491 0-4.958-.06-7.398-.178-10.977-.529-20.251-8.308-22.699-19.021-4.026-17.619-6.153-35.962-6.153-54.801 0-10.855.706-21.545 2.074-32.027 10.558-2.562 22.093-3.973 34.175-3.973 29.904 0 56.455 8.639 73.133 21.995 16.679-13.356 43.229-21.995 73.133-21.995 26.487 0 50.343 6.777 67.039 17.607 16.696-10.83 40.552-17.607 67.039-17.607s50.343 6.777 67.039 17.607c16.696-10.83 40.552-17.607 67.039-17.607 13.308 0 14.922 1.711 26.327 4.788 1.302 10.221 1.899 20.638 1.899 31.212z" fill="#5766ce"/><path d="m490 250.5c0 18.462-2.042 36.448-5.913 53.743-.206.921-3.162 1.84-3.379 2.758-2.832 11.997-14.082 17.5-24.257 10.542-9.264-6.335-15.728-16.464-17.154-28.149-7.776 3.288-16.324 5.106-25.297 5.106-12.887 0-24.898-3.75-35.001-10.219 0 .073.001.146.001.219 0 23.03-19.463 41.514-42.837 39.902-19.724-1.36-35.704-17.34-37.065-37.065-1.612-23.374 16.872-42.837 39.902-42.837 4.262 0 8.368.667 12.219 1.901-1.632-6.075-2.405-12.502-2.182-19.141 1.133-33.715 28.37-61.237 62.073-62.697 6.545-.284 12.887.402 18.896 1.923 8.559-11.387 21.437-19.344 36.201-21.438 15.253 31.939 23.793 67.698 23.793 105.452z" fill="#8c96dd"/><path d="m484.087 304.242c-9.322 41.654-29.252 79.302-56.804 109.962-11.944 13.291-79.717-2.879-79.717-2.879l-21.355-56.056c-.457-1.2-.88-2.409-1.271-3.626-.391 1.218-.813 2.427-1.271 3.626l-34.184 89.732c-2.879 7.558-12.032 10.484-18.761 5.998 0 0-67.331 1.56-70.21-5.998l-34.184-89.732c-.457-1.2-.88-2.409-1.271-3.626-.391 1.218-.814 2.427-1.271 3.626l-15.583 40.905s-82.623 22.881-97.317 3.832c-21.443-27.799-37.047-60.332-44.977-95.764l4.752-19.008c3.162-12.65 15.875-20.435 28.58-17.503l12.704 2.932c4.916 1.134 10.049.623 14.694-1.345 12.017-5.091 24.936-5.091 36.953 0 4.645 1.968 9.778 2.479 14.694 1.345l12.704-2.932c12.705-2.932 25.417 4.854 28.58 17.503l5.485 21.94 5.485-21.94c3.162-12.65 15.875-20.435 28.58-17.503l12.704 2.932c4.916 1.134 10.049.623 14.694-1.345 12.017-5.091 24.936-5.091 36.953 0 4.645 1.968 9.778 2.479 14.694 1.345l12.705-2.932c12.705-2.932 25.417 4.854 28.58 17.503l5.485 21.94 5.485-21.94c3.162-12.65 15.875-20.435 28.58-17.503l12.705 2.932c4.916 1.134 10.049.623 14.694-1.345 12.017-5.091 24.936-5.091 36.953 0 4.645 1.968 9.778 2.479 14.694 1.345l12.704-2.932c12.705-2.932 25.417 4.854 28.58 17.503z" fill="#ececf1"/><path d="m366.012 405.5h-20.666l-19.136-50.231c-5.225-13.716-6.118-28.705-2.558-42.944l6.773-27.091c3.162-12.65 15.875-20.435 28.58-17.503l5.815 1.342c-31.07 59.177 1.192 136.427 1.192 136.427zm-355.347-120.266-4.752 19.008c5.931 26.502 16.156 51.382 29.906 73.873l29.181 27.385 35.75.875 19.523-16.8c-85.273-28.742-81.822-117.645-75.213-120.502l-5.815-1.342c-12.705-2.932-25.418 4.854-28.58 17.503zm194.275-16.161-5.815-1.342c-12.705-2.932-25.417 4.854-28.58 17.503l-6.773 27.091c-3.56 14.239-2.667 29.228 2.558 42.944l19.136 50.231h20.665c.001 0-26.381-99.5-1.191-136.427z" fill="#d3d3d8"/><path d="m142.375 327.643c-2.06 13.745-10.173 31.643-19.811 31.667-3.389.009-5.913-2.195-6.577-2.79-7.293-6.545-.157-17.08-2.86-36.999-1.812-13.354-6.141-17.06-3.039-22.571 3.715-6.6 14.885-9.755 22.322-6.378 14.224 6.462 10.371 34.362 9.965 37.071zm149.915-37.07c-7.436-3.377-18.607-.222-22.322 6.378-3.102 5.511 1.227 9.217 3.039 22.571 2.703 19.919-4.434 30.454 2.86 36.999.663.595 3.188 2.799 6.577 2.79 9.638-.024 17.751-17.922 19.811-31.667.406-2.71 4.259-30.61-9.965-37.071zm159.88 0c-7.436-3.377-18.607-.222-22.322 6.378-3.102 5.511 1.227 9.217 3.039 22.571 2.703 19.919-4.434 30.454 2.86 36.999.663.595 3.188 2.799 6.577 2.79 9.638-.024 17.751-17.922 19.811-31.667.406-2.71 4.259-30.61-9.965-37.071z" fill="#fff5f5"/><path d="m458.321 371.083c-42.082 74.286-121.847 124.417-213.321 124.417s-171.239-50.131-213.321-124.417c10.068 12.851 25.73 21.11 43.321 21.11h28.462c30.376 0 55-24.625 55-55v-24.039c0-4.779 3.874-8.654 8.654-8.654 4.779 0 8.654 3.875 8.654 8.654v24.039c0 30.376 24.624 55 55 55h28.462c30.376 0 55-24.625 55-55v-24.039c0-4.779 3.875-8.654 8.654-8.654 4.779 0 8.654 3.875 8.654 8.654v24.039c0 30.376 24.624 55 55 55h28.46c17.591-.001 33.253-8.259 43.321-21.11z" fill="#f2bb88"/><path d="m283.5 492.492c-12.542 1.98-25.401 3.008-38.5 3.008-91.474 0-171.239-50.131-213.321-124.417 10.068 12.851 25.73 21.11 43.321 21.11h28.462c5.863 0 11.512-.918 16.811-2.617 37.281 53.972 95.664 92.252 163.227 102.916z" fill="#e3a76f"/><path d="m335.824 424.848c13.507-3.888 30.782-2.124 32.718 4.09 2.419 7.762-19.615 20.823-29 25.654-10.816 5.568-35.396 15.937-39.782 9.667-4.591-6.565 12.133-32.523 36.064-39.411z" fill="#f2d1a5"/><path d="m479.523 160.881-80.056-29.138c-.035 0-.07.001-.105.001h-258c-8.836 0-16-7.163-16-16 0-8.837 7.164-16 16-16 0 0 258.992.023 259.479.068 2.279-.21 4.64.067 6.933.902l82.693 30.098c8.304 3.022 12.585 12.204 9.563 20.507-3.022 8.303-12.203 12.584-20.507 9.562z" fill="#58aacb"/><path d="m500.031 151.318c-3.022 8.304-12.204 12.585-20.507 9.563l-80.056-29.138c-.035 0-.07 0-.105 0h-10.37c-8.825 0-15.98-7.154-15.98-15.98 0-8.828 7.159-15.983 15.987-15.98 21.612.008 11.728.017 11.842.028 2.279-.21 4.64.067 6.933.901l82.693 30.098c8.303 3.023 12.585 12.205 9.563 20.508z" fill="#7fbed7"/><path d="m321.468 111.627c0 27.615-22.386 50-50 50h-190c-22.462 0-41.464-14.812-47.773-35.202 14.535-24.701 33.278-46.628 55.243-64.798h182.531c27.614.001 49.999 22.387 49.999 50z" fill="#ececf1"/><path d="m318.503 94.628c-6.957 19.245-25.389 33-47.035 33h-190c-14.993 0-28.443-6.6-37.608-17.051 12.75-18.293 27.932-34.766 45.077-48.949h182.531c21.646 0 40.078 13.754 47.035 33z" fill="#fff5f5"/><path d="m191.469 61.628v62.872h-20v-62.872z" fill="#ececf1"/><path d="m191.469 95.628v66h-20v-66z" fill="#c0dfeb"/><path d="m281.469 109.752v3.75c0 8.284-6.716 15-15 15h-130c-8.284 0-15-6.716-15-15v-3.75c0-8.284 6.716-15 15-15h130c8.284.001 15 6.716 15 15z" fill="#a6d2e3"/><path d="m261.468 121.628c-5.523 0-10-4.477-10-10s4.477-10 10-10 10 4.477 10 10-4.477 10-10 10zm-20-10c0-5.523-4.477-10-10-10s-10 4.477-10 10 4.477 10 10 10 10-4.477 10-10z" fill="#fff5f5"/><path d="m438.697 224.803c-2.929-2.929-2.929-7.677 0-10.606l37.5-37.5c2.929-2.929 7.678-2.929 10.607 0s2.929 7.677 0 10.606l-37.5 37.5c-2.93 2.929-7.679 2.929-10.607 0zm-9.394 9.394c-2.929-2.929-7.677-2.929-10.606 0l-23.902 23.901c-2.929 2.929-2.929 7.678 0 10.607s7.677 2.929 10.607 0l23.901-23.902c2.929-2.929 2.929-7.677 0-10.606zm64.558-30.244c-3.931-1.305-8.176.824-9.481 4.755l-25.203 75.927c-1.305 3.932.824 8.176 4.755 9.481s8.176-.824 9.481-4.755l25.202-75.927c1.306-3.932-.823-8.176-4.754-9.481zm-35.473-34.914c-1.636-3.805-6.047-5.563-9.853-3.927l-73.493 31.604c-3.806 1.637-5.563 6.048-3.927 9.853s6.047 5.563 9.853 3.927l73.493-31.604c3.806-1.637 5.563-6.048 3.927-9.853zm-61.888 65.461c0-4.142-3.358-7.5-7.5-7.5s-7.5 3.358-7.5 7.5 3.358 7.5 7.5 7.5 7.5-3.358 7.5-7.5zm-37.5-17.5c-4.142 0-7.5 3.358-7.5 7.5s3.358 7.5 7.5 7.5 7.5-3.358 7.5-7.5-3.358-7.5-7.5-7.5zm87.5 32.5c-4.142 0-7.5 3.358-7.5 7.5s3.358 7.5 7.5 7.5 7.5-3.358 7.5-7.5-3.358-7.5-7.5-7.5zm-17.5 47.5c-4.142 0-7.5 3.358-7.5 7.5s3.358 7.5 7.5 7.5 7.5-3.358 7.5-7.5-3.358-7.5-7.5-7.5z" fill="#a6d2e3"/></g></svg>