<svg id="Layer_1" enable-background="new 0 0 512 512" height="512" viewBox="0 0 512 512" width="512" xmlns="http://www.w3.org/2000/svg"><path d="m501 267c0 45.246-12.265 87.627-33.652 124-42.571 72.403-407.286 53.936-441.569-40-9.562-26.2-14.779-54.491-14.779-84 0-135.31 109.69-245 245-245s245 109.691 245 245z" fill="#46b27c"/><path d="m112.801 202.251h74.523v14.056h-74.523z" fill="#4377c4"/><path d="m197.188 198.251c0 2.75-2.25 5-5 5h-84.251c-2.75 0-5-2.25-5-5v-84.251c0-2.75 2.25-5 5-5h84.251c2.75 0 5 2.25 5 5z" fill="#5766cc"/><path d="m134 198.251v-84.251c0-2.75 2.25-5 5-5h-31.063c-2.75 0-5 2.25-5 5v84.251c0 2.75 2.25 5 5 5h31.063c-2.75 0-5-2.25-5-5z" fill="#2b41ad"/><path d="m268 391.001v-175.694h-231.916c-6.027 0-10.959 4.932-10.959 10.959v122.868c5.213 14.653 11.8 28.65 19.572 41.867z" fill="#418ece"/><path d="m57 391.001v-164.735c0-6.027 4.932-10.959 10.959-10.959h-31.875c-6.027 0-10.959 4.932-10.959 10.959v122.868c5.213 14.653 11.8 28.65 19.572 41.867z" fill="#4377c4"/><path d="m268 390.001h-223.92c42.434 72.95 121.445 121.999 211.92 121.999 4.023 0 8.023-.102 12-.293z" fill="#bae6ef"/><path d="m197.188 349.491c0 2.75-2.25 5-5 5h-84.251c-2.75 0-5-2.25-5-5v-84.251c0-2.75 2.25-5 5-5h84.251c2.75 0 5 2.25 5 5z" fill="#fff"/><path d="m123.749 349.491v-47.412c-3.865-.302-6.909-3.527-6.909-7.47s3.044-7.168 6.909-7.471v-21.898c0-2.75 2.25-5 5-5h-20.813c-2.75 0-5 2.25-5 5v84.251c0 2.75 2.25 5 5 5h20.813c-2.75 0-5-2.25-5-5z" fill="#e6f7fe"/><path d="m405.92 71v-65.116c0-3.236-2.648-5.884-5.885-5.884h-64.877c-3.236 0-5.885 2.648-5.885 5.884v65.116z" fill="#717ed4"/><path d="m350 71v-65.116c0-3.236 2.648-5.884 5.885-5.884h-20.727c-3.236 0-5.885 2.648-5.885 5.884v65.116z" fill="#5766cc"/><path d="m422.686 135.203v-53.434c0-6.473-5.295-11.769-11.767-11.769h-86.645c-6.471 0-11.767 5.296-11.767 11.769v53.434z" fill="#5766cc"/><path d="m343.822 135.203v-53.434c0-6.473 5.296-11.769 11.767-11.769h-31.315c-6.471 0-11.767 5.296-11.767 11.769v53.434z" fill="#2b41ad"/><path d="m468.193 389.537v-225.915c0-16.18-13.238-29.419-29.419-29.419h-142.354c-16.182 0-29.42 13.239-29.42 29.419v348.12c86.042-3.802 160.549-51.974 201.193-122.205z" fill="#bae6ef"/><path d="m284.652 244.766h14.154v-81.143c0-16.18 13.238-29.419 29.42-29.419h-31.806c-16.182 0-29.42 13.239-29.42 29.419v348.12c5.942-.263 11.827-.745 17.652-1.424z" fill="#75cff9"/><path d="m359.359 134.203h16.475v110.563h-16.475z" fill="#6bbdd5"/><circle cx="367.597" cy="26.721" fill="#5766cc" r="12.349"/><path d="m284.652 510.323c67.483-7.862 126.586-43.139 165.89-94.407v-171.15h-165.89z" fill="#6cbff8"/><path d="m359.359 489.175c5.61-2.614 11.105-5.434 16.475-8.451v-235.958h-16.475z" fill="#418ece"/><g fill="#bae6ef"><circle cx="278.499" cy="23.501" r="10.5"/><circle cx="227.5" cy="89.501" r="8.5"/><circle cx="280.501" cy="64.502" r="10.5"/></g><circle cx="310.499" cy="45.499" fill="#fff" r="7.5"/><circle cx="237.531" cy="54.35" fill="#fff" r="7.5"/><circle cx="239.019" cy="7.501" fill="#bae6ef" r="7.5"/><circle cx="206.519" cy="34.773" fill="#bae6ef" r="7.5"/><circle cx="183.501" cy="74.501" fill="#fff" r="7.5"/><circle cx="313.5" cy="284.5" fill="#bae6ef" r="13.5"/><circle cx="398" cy="313" fill="#bae6ef" r="11"/><circle cx="422" cy="267" fill="#418ece" r="11"/><circle cx="323" cy="358" fill="#418ece" r="11"/><path d="m176 302.109h-51.66c-4.143 0-7.5-3.358-7.5-7.5 0-4.143 3.357-7.5 7.5-7.5h51.66c4.143 0 7.5 3.357 7.5 7.5 0 4.142-3.357 7.5-7.5 7.5z" fill="#5698af"/><path d="m166.694 324.5h-33.05c-4.142 0-7.5-3.357-7.5-7.5 0-4.142 3.358-7.5 7.5-7.5h33.05c4.143 0 7.5 3.358 7.5 7.5 0 4.143-3.357 7.5-7.5 7.5z" fill="#5698af"/></svg>