<svg id="Capa_1" enable-background="new 0 0 512 512" height="512" viewBox="0 0 512 512" width="512" xmlns="http://www.w3.org/2000/svg"><g><path d="m323.991 451.938-263.717-263.717c-17.666-17.666-17.666-46.308 0-63.973l63.973-63.973c17.666-17.666 46.308-17.666 63.973 0l263.717 263.717c17.666 17.666 17.666 46.308 0 63.973l-63.973 63.974c-17.665 17.665-46.307 17.665-63.973-.001z" fill="#d4d4ff"/><g><path d="m417.687 325.434c13.306-7.449 25.822-16.831 37.137-28.145 49.228-49.228 61.863-121.18 37.929-182.086-8.4-21.376-21.295-41.395-38.707-58.588-66.898-66.056-173.686-65.393-239.796 1.45-10.743 10.862-19.719 22.814-26.929 35.497-22.274 39.184-54.575 71.485-93.759 93.759-12.683 7.21-24.635 16.186-35.497 26.929-66.842 66.11-67.506 172.898-1.451 239.795 17.194 17.412 37.212 30.307 58.589 38.708 60.906 23.934 132.858 11.298 182.086-37.929 11.315-11.315 20.697-23.831 28.145-37.137 21.65-38.675 53.578-70.603 92.253-92.253z" fill="#efedff"/><path d="m154.025 310.21c10.862-10.743 22.814-19.719 35.497-26.929 39.184-22.274 71.484-54.575 93.759-93.759 7.21-12.683 16.186-24.635 26.929-35.497 49.352-49.899 121.37-62.909 182.542-38.823-8.4-21.376-21.295-41.395-38.707-58.588-66.897-66.055-173.685-65.392-239.795 1.451-10.743 10.862-19.719 22.814-26.929 35.497-22.274 39.184-54.575 71.485-93.759 93.759-12.683 7.21-24.635 16.186-35.497 26.929-66.842 66.11-67.506 172.898-1.451 239.795 17.194 17.412 37.212 30.307 58.589 38.708-24.086-61.172-11.076-133.191 38.822-182.543z" fill="#d4d4ff"/></g><g><g><g><ellipse cx="226.965" cy="192.826" fill="#ff8e9e" rx="19.909" ry="25" transform="matrix(.707 -.707 .707 .707 -69.872 216.967)"/></g><g><ellipse cx="319.174" cy="285.035" fill="#ff8e9e" rx="19.909" ry="25" transform="matrix(.707 -.707 .707 .707 -108.066 309.173)"/></g></g></g><g><path d="m512 177.02c0-98.216-80.203-177.02-176.79-177.02h-.12c-51.172 0-100.636 22.067-134.653 61.882l-6.913-6.913c-20.563-20.561-54.019-20.559-74.581 0l-63.973 63.974c-20.562 20.563-20.562 54.019 0 74.581l6.901 6.901c-10.071 8.609-18.864 18.005-26.581 28.325-2.503 3.356-1.778 8.033 1.51 10.5 3.255 2.435 7.974 1.864 10.5-1.51 33.911-45.324 58.74-39.621 104.77-85.65 16.301-16.29 30.351-34.73 41.761-54.81 28.505-50.137 82.402-82.22 141.319-82.25 87.296.04 161.807 71.036 161.85 161.99-.031 60.304-33.157 113.983-82.96 141.87-39.91 22.34-72.811 55.23-95.141 95.13-27.996 49.993-81.672 83.01-141.67 83.01-88.832-.001-162.188-72.349-162.229-161.86 0-25.26 5.97-50.53 17.26-73.07 1.85-3.7.35-8.22-3.35-10.069-3.488-1.76-7.989-.535-9.971 3.17v-.011l-.09.19c-6.18 12.32-10.92 25.4-14.09 38.86-3.159 13.4-4.759 27.17-4.759 40.93-.043 97.745 80.104 176.83 177.21 176.83h.02.021c46.34 0 92.003-18.28 125.85-52.34 2.994-3.016 5.87-6.146 8.639-9.368l6.949 6.949c20.563 20.561 54.018 20.561 74.581 0l63.973-63.973c20.608-20.61 20.612-53.968 0-74.58l-6.912-6.913c40.074-34.29 61.685-83.973 61.669-134.755zm-438.239 14.08-8.184-8.183c-14.714-14.713-14.714-38.653 0-53.366l63.974-63.974c14.714-14.716 38.654-14.714 53.366 0l8.19 8.19c-3.702 5.159-7.152 10.526-10.317 16.092-37.521 66.01-88.49 87.945-107.029 101.241zm372.874 138.195c14.746 14.746 14.749 38.618-.001 53.366l-63.973 63.973c-14.714 14.716-38.653 14.714-53.367 0l-8.219-8.219c3.944-5.473 7.601-11.163 10.915-17.075 20.98-37.48 51.881-68.38 89.37-89.36 5.924-3.316 11.616-6.96 17.079-10.881z"/><path d="m439.43 139.24c1.407 3.855 5.697 5.911 9.62 4.489 3.88-1.42 5.9-5.729 4.479-9.609-6.42-17.66-16.359-33.02-29.949-46.61l-.021-.02c-59.822-59.131-157.763-44.154-198.519 27.51-26.09 45.899-64.13 83.95-110.03 110.04-71.605 40.727-87.039 138.9-26.94 199.1 59.256 59.304 158.765 45.207 199.5-27.649 25.58-45.681 63.24-83.351 108.92-108.921 24.179-13.528 44.28-35.402 55.36-62.699 7.448-18.37 10.687-38.594 8.69-59.721-.381-3.885-3.679-7.102-8.19-6.75-4.11.391-7.14 4.061-6.74 8.181 4.373 45.425-19.053 86.97-56.449 107.899-48.101 26.93-87.751 66.58-114.681 114.68-35.556 63.532-122.834 77.448-176.319 23.859-52.39-53.093-38.697-139.179 24.26-174.939 48.24-27.42 88.24-67.42 115.66-115.66 36.093-63.487 122.247-76.254 174.939-24.26 11.566 11.545 20.539 24.917 26.41 41.08z"/><path d="m216.461 251.918c0-4.143-3.357-7.5-7.5-7.5h-8.494v-8.493c0-4.143-3.357-7.5-7.5-7.5s-7.5 3.357-7.5 7.5v8.493h-8.493c-4.143 0-7.5 3.357-7.5 7.5s3.357 7.5 7.5 7.5h8.493v8.493c0 4.143 3.357 7.5 7.5 7.5s7.5-3.357 7.5-7.5v-8.493h8.494c4.143 0 7.5-3.357 7.5-7.5z"/><path d="m256.94 339.385c4.143 0 7.5-3.357 7.5-7.5v-8.493h8.494c4.143 0 7.5-3.357 7.5-7.5s-3.357-7.5-7.5-7.5h-8.494v-8.493c0-4.143-3.357-7.5-7.5-7.5s-7.5 3.357-7.5 7.5v8.493h-8.493c-4.143 0-7.5 3.357-7.5 7.5s3.357 7.5 7.5 7.5h8.493v8.493c0 4.142 3.358 7.5 7.5 7.5z"/><path d="m208.464 323.888c0-4.143-3.357-7.5-7.5-7.5h-8.493v-8.493c0-4.143-3.357-7.5-7.5-7.5s-7.5 3.357-7.5 7.5v8.493h-8.493c-4.143 0-7.5 3.357-7.5 7.5s3.357 7.5 7.5 7.5h8.493v8.494c0 4.143 3.357 7.5 7.5 7.5s7.5-3.357 7.5-7.5v-8.494h8.493c4.142 0 7.5-3.358 7.5-7.5z"/><path d="m113 355.378c4.143 0 7.5-3.357 7.5-7.5v-8.493h8.493c4.143 0 7.5-3.357 7.5-7.5s-3.357-7.5-7.5-7.5h-8.493v-8.493c0-4.143-3.357-7.5-7.5-7.5s-7.5 3.357-7.5 7.5v8.493h-8.493c-4.143 0-7.5 3.357-7.5 7.5s3.357 7.5 7.5 7.5h8.493v8.493c0 4.143 3.357 7.5 7.5 7.5z"/><path d="m176.974 419.352c4.143 0 7.5-3.357 7.5-7.5v-8.493h8.493c4.143 0 7.5-3.357 7.5-7.5s-3.357-7.5-7.5-7.5h-8.493v-8.493c0-4.143-3.357-7.5-7.5-7.5s-7.5 3.357-7.5 7.5v8.493h-8.493c-4.143 0-7.5 3.357-7.5 7.5s3.357 7.5 7.5 7.5h8.493v8.493c0 4.142 3.357 7.5 7.5 7.5z"/><path d="m403.583 128.769c0-4.143-3.357-7.5-7.5-7.5h-8.493v-8.493c0-4.143-3.357-7.5-7.5-7.5s-7.5 3.357-7.5 7.5v8.493h-8.493c-4.143 0-7.5 3.357-7.5 7.5s3.357 7.5 7.5 7.5h8.493v8.493c0 4.143 3.357 7.5 7.5 7.5s7.5-3.357 7.5-7.5v-8.493h8.493c4.143 0 7.5-3.358 7.5-7.5z"/><path d="m315.619 152.759v-8.493h8.494c4.143 0 7.5-3.357 7.5-7.5s-3.357-7.5-7.5-7.5h-8.494v-8.493c0-4.143-3.357-7.5-7.5-7.5s-7.5 3.357-7.5 7.5v8.493h-8.493c-4.143 0-7.5 3.357-7.5 7.5s3.357 7.5 7.5 7.5h8.493v8.493c0 4.143 3.357 7.5 7.5 7.5s7.5-3.358 7.5-7.5z"/><path d="m372.093 224.232c4.143 0 7.5-3.357 7.5-7.5v-8.493h8.494c4.143 0 7.5-3.357 7.5-7.5s-3.357-7.5-7.5-7.5h-8.494v-8.493c0-4.143-3.357-7.5-7.5-7.5s-7.5 3.357-7.5 7.5v8.493h-8.493c-4.143 0-7.5 3.357-7.5 7.5s3.357 7.5 7.5 7.5h8.493v8.493c0 4.143 3.357 7.5 7.5 7.5z"/><path d="m257.199 191.234 8.484-8.485c2.929-2.929 2.929-7.678-.001-10.606-2.928-2.928-7.677-2.929-10.606.001l-8.484 8.485c-2.929 2.929-2.929 7.678.001 10.606 1.464 1.464 3.384 2.196 5.303 2.196s3.838-.732 5.303-2.197z"/><path d="m326.068 267.604c1.919 0 3.839-.732 5.304-2.196l8.485-8.485c2.929-2.93 2.929-7.678 0-10.607-2.93-2.928-7.678-2.928-10.607 0l-8.485 8.485c-2.929 2.93-2.929 7.678 0 10.607 1.465 1.464 3.384 2.196 5.303 2.196z"/><path d="m301.391 241.89c4.132-.284 7.252-3.864 6.968-7.997-.284-4.132-3.871-7.244-7.997-6.968-4.154.278-8.199-1.23-11.127-4.158-2.928-2.929-4.444-6.985-4.159-11.128.284-4.133-2.836-7.713-6.968-7.997-4.136-.272-7.712 2.836-7.997 6.968-.582 8.47 2.521 16.767 8.518 22.764 5.519 5.518 12.984 8.586 20.742 8.586.671-.001 1.345-.024 2.02-.07z"/></g></g></svg>