<svg id="Layer_1" enable-background="new 0 0 256 256" height="512" viewBox="0 0 256 256" width="512" xmlns="http://www.w3.org/2000/svg"><g><g><g><g><g><path d="m75.845 42.202h19.85v55.306h-19.85z" fill="#e0ebfc"/></g></g></g></g><g><g><g><g><path d="m52.525 30.857c-.805 0-1.458.653-1.458 1.458v8.43c0 .805.653 1.458 1.458 1.458h65.864v9.755h18.433v-14.1c0-3.866-3.134-7-7-7h-77.297z" fill="#e0ebfc"/></g></g></g></g><g><g><g><g><path d="m95.696 99.508h-19.851c-1.104 0-2-.896-2-2v-55.306c0-1.104.896-2 2-2h19.851c1.104 0 2 .896 2 2v55.306c0 1.104-.896 2-2 2zm-17.851-4h15.851v-51.306h-15.851z" fill="#3762cc"/></g></g></g></g><g><g><g><g><path d="m136.822 53.957h-18.433c-1.104 0-2-.896-2-2v-7.755h-63.864c-1.907 0-3.458-1.551-3.458-3.458v-8.43c0-1.906 1.551-3.458 3.458-3.458h77.297c4.963 0 9 4.038 9 9v14.1c0 1.106-.895 2.001-2 2.001zm-16.433-4h14.433v-12.1c0-2.757-2.243-5-5-5h-76.755v7.345h65.322c1.104 0 2 .896 2 2z" fill="#3762cc"/></g></g></g></g><g><g><g><g><path d="m101.074 131.897h-30.607c-2.415 0-4.373-1.958-4.373-4.373v-56.841c0-2.415 1.958-4.373 4.373-4.373h30.607c2.415 0 4.373 1.958 4.373 4.373v56.842c0 2.414-1.958 4.372-4.373 4.372z" fill="#6bdddd"/></g></g></g></g><g><g><g><g><path d="m101.074 133.897h-30.607c-3.514 0-6.373-2.859-6.373-6.373v-56.841c0-3.514 2.859-6.373 6.373-6.373h30.606c3.514 0 6.373 2.859 6.373 6.373v56.841c.001 3.514-2.858 6.373-6.372 6.373zm-30.607-65.587c-1.309 0-2.373 1.064-2.373 2.373v56.841c0 1.309 1.064 2.373 2.373 2.373h30.606c1.309 0 2.373-1.064 2.373-2.373v-56.841c0-1.309-1.064-2.373-2.373-2.373z" fill="#3762cc"/></g></g></g></g><g><g><g><g><path d="m196.418 248c-5.615 0-10.167-4.552-10.167-10.166v-157.334h20.333v157.334c.001 5.614-4.551 10.166-10.166 10.166z" fill="#eaa97d"/></g></g></g></g><g><g><g><g><path d="m196.418 250c-6.708 0-12.166-5.458-12.166-12.167v-157.333c0-1.104.896-2 2-2h20.333c1.104 0 2 .896 2 2v157.333c0 6.709-5.458 12.167-12.167 12.167zm-8.166-167.5v155.333c0 4.503 3.663 8.167 8.166 8.167s8.167-3.664 8.167-8.167v-155.333z" fill="#3762cc"/></g></g></g></g><g><g><g><g><path d="m111.367 84.123h-25.597-25.596c-19.617 12.445-31.503 34.061-31.503 57.293v98.59c0 4.415 3.579 7.994 7.994 7.994h49.105 49.106c4.415 0 7.994-3.579 7.994-7.994v-98.59c0-23.232-11.886-44.848-31.503-57.293z" fill="#6bdddd"/></g></g></g></g><g><g><g><g><path d="m56.369 226.302c-3.314 0-6-2.686-6-6v-78.886c0-13.132 5.471-25.362 14.945-34.016 1.111-1.015 2.563-1.578 4.067-1.578h32.78c1.504 0 2.956.564 4.067 1.578 9.473 8.654 14.945 20.884 14.945 34.016v78.886c0 3.314-2.686 6-6 6z" fill="#4671c6"/></g></g></g></g><g><g><g><g><ellipse cx="196.667" cy="65.25" fill="#eaa97d" rx="39.918" ry="57.25"/></g></g></g></g><g><g><g><g><ellipse cx="196.667" cy="65.25" fill="#4671c6" rx="29.496" ry="47.175"/></g></g></g></g><g><g><g><g><circle cx="196.418" cy="24.071" fill="#e0ebfc" r="5.071"/></g></g></g></g><g><g><g><g><circle cx="196.418" cy="44.071" fill="#e0ebfc" r="5.071"/></g></g></g></g><g><g><g><g><circle cx="196.418" cy="64.071" fill="#e0ebfc" r="5.071"/></g></g></g></g><g><g><g><g><circle cx="196.418" cy="84.071" fill="#e0ebfc" r="5.071"/></g></g></g></g><g><g><g><g><circle cx="196.418" cy="104.071" fill="#e0ebfc" r="5.071"/></g></g></g></g><g><g><g><g><circle cx="216.418" cy="34.071" fill="#e0ebfc" r="5.071"/></g></g></g></g><g><g><g><g><circle cx="216.418" cy="54.071" fill="#e0ebfc" r="5.071"/></g></g></g></g><g><g><g><g><circle cx="216.418" cy="74.071" fill="#e0ebfc" r="5.071"/></g></g></g></g><g><g><g><g><circle cx="176.418" cy="34.071" fill="#e0ebfc" r="5.071"/></g></g></g></g><g><g><g><g><circle cx="176.418" cy="54.071" fill="#e0ebfc" r="5.071"/></g></g></g></g><g><g><g><g><circle cx="176.418" cy="74.071" fill="#e0ebfc" r="5.071"/></g></g></g></g><g><g><g><g><circle cx="216.418" cy="94.071" fill="#e0ebfc" r="5.071"/></g></g></g></g><g><g><g><g><circle cx="176.418" cy="94.071" fill="#e0ebfc" r="5.071"/></g></g></g></g><g><g><g><g><path d="m196.667 124.5c-23.113 0-41.918-26.58-41.918-59.25s18.805-59.25 41.918-59.25 41.918 26.58 41.918 59.25-18.805 59.25-41.918 59.25zm0-114.5c-20.908 0-37.918 24.785-37.918 55.25s17.01 55.25 37.918 55.25 37.918-24.785 37.918-55.25-17.01-55.25-37.918-55.25z" fill="#3762cc"/></g></g></g></g><g><g><g><g><path d="m196.418 31.143c-3.899 0-7.071-3.172-7.071-7.071s3.172-7.072 7.071-7.072 7.071 3.172 7.071 7.071-3.172 7.072-7.071 7.072zm0-10.143c-1.693 0-3.071 1.378-3.071 3.071s1.378 3.071 3.071 3.071 3.071-1.378 3.071-3.071-1.378-3.071-3.071-3.071z" fill="#3762cc"/></g></g></g></g><g><g><g><g><path d="m196.418 51.143c-3.899 0-7.071-3.172-7.071-7.071s3.172-7.072 7.071-7.072 7.071 3.172 7.071 7.071-3.172 7.072-7.071 7.072zm0-10.143c-1.693 0-3.071 1.378-3.071 3.071s1.378 3.071 3.071 3.071 3.071-1.378 3.071-3.071-1.378-3.071-3.071-3.071z" fill="#3762cc"/></g></g></g></g><g><g><g><g><path d="m196.418 71.143c-3.899 0-7.071-3.172-7.071-7.071s3.172-7.072 7.071-7.072 7.071 3.172 7.071 7.071-3.172 7.072-7.071 7.072zm0-10.143c-1.693 0-3.071 1.378-3.071 3.071s1.378 3.071 3.071 3.071 3.071-1.378 3.071-3.071-1.378-3.071-3.071-3.071z" fill="#3762cc"/></g></g></g></g><g><g><g><g><path d="m196.418 91.143c-3.899 0-7.071-3.172-7.071-7.071s3.172-7.072 7.071-7.072 7.071 3.172 7.071 7.071-3.172 7.072-7.071 7.072zm0-10.143c-1.693 0-3.071 1.378-3.071 3.071s1.378 3.071 3.071 3.071 3.071-1.378 3.071-3.071-1.378-3.071-3.071-3.071z" fill="#3762cc"/></g></g></g></g><g><g><g><g><path d="m196.418 111.143c-3.899 0-7.071-3.172-7.071-7.071s3.172-7.072 7.071-7.072 7.071 3.172 7.071 7.071-3.172 7.072-7.071 7.072zm0-10.143c-1.693 0-3.071 1.378-3.071 3.071s1.378 3.071 3.071 3.071 3.071-1.378 3.071-3.071-1.378-3.071-3.071-3.071z" fill="#3762cc"/></g></g></g></g><g><g><g><g><path d="m216.418 41.143c-3.899 0-7.071-3.172-7.071-7.071s3.172-7.072 7.071-7.072 7.071 3.172 7.071 7.071-3.172 7.072-7.071 7.072zm0-10.143c-1.693 0-3.071 1.378-3.071 3.071s1.378 3.071 3.071 3.071 3.071-1.378 3.071-3.071-1.378-3.071-3.071-3.071z" fill="#3762cc"/></g></g></g></g><g><g><g><g><path d="m216.418 61.143c-3.899 0-7.071-3.172-7.071-7.071s3.172-7.072 7.071-7.072 7.071 3.172 7.071 7.071-3.172 7.072-7.071 7.072zm0-10.143c-1.693 0-3.071 1.378-3.071 3.071s1.378 3.071 3.071 3.071 3.071-1.378 3.071-3.071-1.378-3.071-3.071-3.071z" fill="#3762cc"/></g></g></g></g><g><g><g><g><path d="m216.418 81.143c-3.899 0-7.071-3.172-7.071-7.071s3.172-7.072 7.071-7.072 7.071 3.172 7.071 7.071-3.172 7.072-7.071 7.072zm0-10.143c-1.693 0-3.071 1.378-3.071 3.071s1.378 3.071 3.071 3.071 3.071-1.378 3.071-3.071-1.378-3.071-3.071-3.071z" fill="#3762cc"/></g></g></g></g><g><g><g><g><path d="m176.418 41.143c-3.899 0-7.071-3.172-7.071-7.071s3.172-7.072 7.071-7.072 7.071 3.172 7.071 7.071-3.172 7.072-7.071 7.072zm0-10.143c-1.693 0-3.071 1.378-3.071 3.071s1.378 3.071 3.071 3.071 3.071-1.378 3.071-3.071-1.378-3.071-3.071-3.071z" fill="#3762cc"/></g></g></g></g><g><g><g><g><path d="m176.418 61.143c-3.899 0-7.071-3.172-7.071-7.071s3.172-7.072 7.071-7.072 7.071 3.172 7.071 7.071-3.172 7.072-7.071 7.072zm0-10.143c-1.693 0-3.071 1.378-3.071 3.071s1.378 3.071 3.071 3.071 3.071-1.378 3.071-3.071-1.378-3.071-3.071-3.071z" fill="#3762cc"/></g></g></g></g><g><g><g><g><path d="m176.418 81.143c-3.899 0-7.071-3.172-7.071-7.071s3.172-7.072 7.071-7.072 7.071 3.172 7.071 7.071-3.172 7.072-7.071 7.072zm0-10.143c-1.693 0-3.071 1.378-3.071 3.071s1.378 3.071 3.071 3.071 3.071-1.378 3.071-3.071-1.378-3.071-3.071-3.071z" fill="#3762cc"/></g></g></g></g><g><g><g><g><path d="m216.418 101.143c-3.899 0-7.071-3.172-7.071-7.071s3.172-7.072 7.071-7.072 7.071 3.172 7.071 7.071-3.172 7.072-7.071 7.072zm0-10.143c-1.693 0-3.071 1.378-3.071 3.071s1.378 3.071 3.071 3.071 3.071-1.378 3.071-3.071-1.378-3.071-3.071-3.071z" fill="#3762cc"/></g></g></g></g><g><g><g><g><path d="m176.418 101.143c-3.899 0-7.071-3.172-7.071-7.071s3.172-7.072 7.071-7.072 7.071 3.172 7.071 7.071-3.172 7.072-7.071 7.072zm0-10.143c-1.693 0-3.071 1.378-3.071 3.071s1.378 3.071 3.071 3.071 3.071-1.378 3.071-3.071-1.378-3.071-3.071-3.071z" fill="#3762cc"/></g></g></g></g><g><g><g><g><path d="m134.876 250h-98.211c-5.511 0-9.994-4.483-9.994-9.994v-98.59c0-24.049 12.124-46.099 32.432-58.982.32-.203.692-.311 1.071-.311h51.193c.379 0 .751.108 1.071.311 20.308 12.883 32.432 34.932 32.432 58.982v98.59c0 5.511-4.483 9.994-9.994 9.994zm-74.117-163.877c-18.852 12.187-30.089 32.813-30.089 55.293v98.59c0 3.305 2.689 5.994 5.994 5.994h98.211c3.306 0 5.994-2.689 5.994-5.994v-98.59c0-22.48-11.236-43.106-30.088-55.293z" fill="#3762cc"/></g></g></g></g><g><g><g><g><path d="m184.667 248h-82.667c-6.627 0-12-5.373-12-12v-39.333c0-6.627 5.373-12 12-12h82.667c6.627 0 12 5.373 12 12v39.333c0 6.627-5.373 12-12 12z" fill="#a4c9ff"/></g></g></g></g><g><g><g><g><path d="m177.667 235h-68.667c-3.309 0-6-2.691-6-6v-25.333c0-3.309 2.691-6 6-6h68.667c3.309 0 6 2.691 6 6v25.333c0 3.309-2.691 6-6 6zm-68.667-33.333c-1.103 0-2 .897-2 2v25.333c0 1.103.897 2 2 2h68.667c1.103 0 2-.897 2-2v-25.333c0-1.103-.897-2-2-2z" fill="#3762cc"/></g></g></g></g><g><g><g><g><path d="m184.667 250h-82.667c-7.72 0-14-6.28-14-14v-39.333c0-7.72 6.28-14 14-14h82.667c7.72 0 14 6.28 14 14v39.333c0 7.72-6.28 14-14 14zm-82.667-63.333c-5.514 0-10 4.486-10 10v39.333c0 5.514 4.486 10 10 10h82.667c5.514 0 10-4.486 10-10v-39.333c0-5.514-4.486-10-10-10z" fill="#3762cc"/></g></g></g></g></g></svg>