<svg id="Layer_3" enable-background="new 0 0 64 64" height="512" viewBox="0 0 64 64" width="512" xmlns="http://www.w3.org/2000/svg"><circle cx="43" cy="6" fill="#c9c6ca" r="2"/><circle cx="47" cy="25" fill="#979598" r="3"/><ellipse cx="46" cy="25" fill="#c9c6ca" rx="2" ry="2.816"/><circle cx="56" cy="13" fill="#979598" r="4"/><ellipse cx="54.5" cy="13" fill="#c9c6ca" rx="2.5" ry="3.703"/><path d="m51 42v18c0 1.105.895 2 2 2 1.105 0 2-.895 2-2v-18z" fill="#e3aa75"/><path d="m51 60c0 1.105.895 2 2 2s2-.895 2-2v-4h-4z" fill="#72553b"/><path d="m44 38 4 4h10l4-4z" fill="#979598"/><path d="m44 38 4 4h7l4-4z" fill="#c9c6ca"/><path d="m44 34h18v4h-18z" fill="#979598"/><path d="m44 34h15v4h-15z" fill="#c9c6ca"/><path d="m15.968 35.835c.303-.107.584-.261.836-.452.729.976 1.884 1.617 3.196 1.617 1.576 0 2.926-.919 3.578-2.244.124.171.266.329.422.47v4.774h7.172c1.811 0 3.548.719 4.828 2 1.281 1.281 2 3.017 2 4.828v15.172h-36v-15.172c0-1.811.719-3.547 2-4.828 1.281-1.281 3.017-2 4.828-2h7.172v-4.178z" fill="#fcc062"/><path d="m32 18 4-4v-4l-4-4v-2l-4-2h-11l-2 2-2-2h-4l-2 2v2l-3 3v5l4 4v-3h6.757c2.717 0 5.322-1.079 7.243-3 1.921 1.921 4.526 3 7.243 3h2.757v2.934z" fill="#aa8058"/><g fill="#fcc062"><path d="m32 24h2c1.105 0 2-.895 2-2v-2c0-1.105-.895-2-2-2h-2z"/><path d="m8 24h-2c-1.105 0-2-.895-2-2v-2c0-1.105.895-2 2-2h2z"/><path d="m10.056 28.786c-1.298-1.917-2.056-4.23-2.056-6.72v-7h6.757c2.717 0 5.322-1.079 7.243-3 1.921 1.921 4.526 3 7.243 3h2.757v7c0 3.042-1.132 5.819-2.997 7.934l-.109-.026c.069-.291.106-.595.106-.908 0-2.209-1.791-4-4-4-1.496 0-2.785.831-3.471 2.047-.32.051-.619.153-.897.297-.631-1.38-2.015-2.344-3.632-2.344-1.938 0-3.553 1.379-3.92 3.208-.336-.13-.698-.208-1.08-.208-.743 0-1.422.27-1.946.717z"/></g><path d="m29 29c0-2.209-1.791-4-4-4-1.496 0-2.785.831-3.471 2.047-.32.051-.619.153-.897.297-.63-1.38-2.015-2.344-3.632-2.344-1.938 0-3.553 1.379-3.92 3.208-.336-.13-.698-.208-1.08-.208-1.657 0-3 1.343-3 3s1.343 3 3 3c.061 0 .118-.014.178-.018.408 1.172 1.511 2.018 2.822 2.018.68 0 1.301-.235 1.804-.617.729.976 1.884 1.617 3.196 1.617 1.576 0 2.926-.919 3.578-2.244.545.751 1.423 1.244 2.422 1.244 1.657 0 3-1.343 3-3 0-.695-.246-1.328-.644-1.836.404-.625.644-1.365.644-2.164z" fill="#e3e1e3"/><path d="m29.753 30.595-1.5-1.323c1.771-2.008 2.747-4.591 2.747-7.272v-6h-1.758c-2.681 0-5.218-.932-7.242-2.643-2.024 1.711-4.562 2.643-7.242 2.643h-5.758v6c0 2.209.651 4.339 1.885 6.159l-1.656 1.122c-1.458-2.153-2.229-4.671-2.229-7.281v-7c0-.552.447-1 1-1h6.758c2.469 0 4.789-.961 6.535-2.707.391-.391 1.023-.391 1.414 0 1.746 1.746 4.066 2.707 6.535 2.707h2.758c.553 0 1 .448 1 1v7c0 3.168-1.153 6.221-3.247 8.595z"/><path d="m34 25h-2v-2h2c.552 0 1-.449 1-1v-2c0-.551-.448-1-1-1h-2c-.404 0-.77-.244-.924-.617-.155-.374-.069-.804.217-1.09l3.707-3.707v-3.172l-3.707-3.707c-.188-.187-.293-.442-.293-.707v-1.382l-3.236-1.618h-10.35l-1.707 1.707c-.391.391-1.023.391-1.414 0l-1.707-1.707h-3.172l-1.414 1.414v1.586c0 .265-.105.52-.293.707l-2.707 2.707v4.172l3.707 3.707c.286.286.372.716.217 1.09-.154.373-.52.617-.924.617h-2c-.552 0-1 .449-1 1v2c0 .551.448 1 1 1h2v2h-2c-1.654 0-3-1.346-3-3v-2c0-1.522 1.14-2.784 2.611-2.975l-2.318-2.318c-.188-.187-.293-.442-.293-.707v-5c0-.265.105-.52.293-.707l2.707-2.707v-1.586c0-.265.105-.52.293-.707l2-2c.187-.188.441-.293.707-.293h4c.266 0 .52.105.707.293l1.293 1.293 1.293-1.293c.187-.188.441-.293.707-.293h11c.155 0 .309.036.447.105l4 2c.339.17.553.516.553.895v1.586l3.707 3.707c.188.187.293.442.293.707v4c0 .265-.105.52-.293.707l-2.318 2.318c1.471.191 2.611 1.453 2.611 2.975v2c0 1.654-1.346 3-3 3z"/><path d="m13 18h2v4h-2z"/><path d="m25 18h2v4h-2z"/><path d="m38 63h-36c-.553 0-1-.448-1-1v-15.171c0-2.091.814-4.057 2.293-5.536 1.478-1.479 3.443-2.293 5.535-2.293h6.172v-3.178h2v4.178c0 .552-.447 1-1 1h-7.172c-1.557 0-3.021.606-4.121 1.707-1.101 1.101-1.707 2.565-1.707 4.122v14.171h34v-14.171c0-1.557-.606-3.021-1.707-4.122s-2.564-1.707-4.121-1.707h-7.172c-.553 0-1-.448-1-1v-4.774h2v3.774h6.172c2.092 0 4.058.814 5.535 2.293 1.479 1.479 2.293 3.445 2.293 5.536v15.171c0 .552-.447 1-1 1z"/><path d="m7 48h2v14h-2z"/><path d="m31 48h2v14h-2z"/><path d="m20 38c-1.279 0-2.477-.481-3.395-1.343-.504.226-1.047.343-1.605.343-1.448 0-2.766-.791-3.467-2.027-1.986-.232-3.533-1.925-3.533-3.973 0-2.341 2.071-4.228 4.408-3.978.777-1.798 2.571-3.022 4.592-3.022 1.592 0 3.074.769 4.006 2.022.936-1.261 2.417-2.022 3.994-2.022 2.757 0 5 2.243 5 5 0 .735-.164 1.458-.479 2.122.315.579.479 1.217.479 1.878 0 2.206-1.794 4-4 4-.811 0-1.596-.252-2.254-.704-.933 1.073-2.282 1.704-3.746 1.704zm-3.196-3.617c.046 0 .093.003.14.01.264.037.502.178.661.392.577.772 1.45 1.215 2.395 1.215 1.142 0 2.169-.646 2.68-1.685.154-.314.463-.525.812-.555.36-.038.688.125.895.408.384.529.971.832 1.613.832 1.103 0 2-.897 2-2 0-.552-.234-.969-.432-1.221-.262-.336-.283-.8-.052-1.158.317-.49.484-1.05.484-1.621 0-1.654-1.346-3-3-3-1.068 0-2.064.589-2.6 1.539-.149.266-.413.449-.715.497-.205.033-.4.097-.596.198-.243.125-.527.146-.785.056-.259-.089-.469-.281-.583-.53-.487-1.07-1.555-1.76-2.721-1.76-1.424 0-2.66 1.012-2.939 2.405-.058.289-.241.538-.499.68-.26.143-.567.163-.842.056-1.374-.531-2.72.521-2.72 1.859 0 1.103.897 2 2 2 .024-.003.088-.014.112-.016.466-.032.862.245 1.01.669.28.805 1.035 1.347 1.878 1.347.428 0 .843-.143 1.199-.414.175-.132.388-.203.605-.203z"/><path d="m13 51h2v2h-2z"/><path d="m25 51h2v2h-2z"/><path d="m62 39h-18c-.553 0-1-.448-1-1v-4c0-.552.447-1 1-1h18c.553 0 1 .448 1 1v4c0 .552-.447 1-1 1zm-17-2h16v-2h-16z"/><path d="m58 43h-10c-.266 0-.52-.105-.707-.293l-4-4 1.414-1.414 3.707 3.707h9.172l3.707-3.707 1.414 1.414-4 4c-.187.188-.441.293-.707.293z"/><path d="m53 63c-1.654 0-3-1.346-3-3v-18h2v18c0 .551.448 1 1 1s1-.449 1-1v-18h2v18c0 1.654-1.346 3-3 3z"/><path d="m47 29c-2.206 0-4-1.794-4-4s1.794-4 4-4 4 1.794 4 4-1.794 4-4 4zm0-6c-1.103 0-2 .897-2 2s.897 2 2 2 2-.897 2-2-.897-2-2-2z"/><path d="m56 18c-2.757 0-5-2.243-5-5s2.243-5 5-5 5 2.243 5 5-2.243 5-5 5zm0-8c-1.654 0-3 1.346-3 3s1.346 3 3 3 3-1.346 3-3-1.346-3-3-3z"/><path d="m43 9c-1.654 0-3-1.346-3-3s1.346-3 3-3 3 1.346 3 3-1.346 3-3 3zm0-4c-.552 0-1 .449-1 1s.448 1 1 1 1-.449 1-1-.448-1-1-1z"/><path d="m51 55h4v2h-4z"/></svg>