<svg height="464pt" viewBox="0 0 464 464" width="464pt" xmlns="http://www.w3.org/2000/svg"><path d="m16 0h432c8.835938 0 16 7.164062 16 16v432c0 8.835938-7.164062 16-16 16h-432c-8.835938 0-16-7.164062-16-16v-432c0-8.835938 7.164062-16 16-16zm0 0" fill="#533222"/><path d="m32 32h400v400h-400zm0 0" fill="#743532"/><path d="m384 312h-136v-88c0-17.671875 14.328125-32 32-32h50.65625c29.460938 0 53.34375 23.882812 53.34375 53.34375zm0 0" fill="#fd7422"/><path d="m280 224h50.65625c29.460938 0 53.34375 23.882812 53.34375 53.34375v34.65625h-136v-56c0-17.671875 14.328125-32 32-32zm0 0" fill="#fd9226"/><path d="m303.28125 227.3125c.746094-1.644531.917969-3.496094.480469-5.25l-7.515625-30.0625h-16.09375c-.054688.644531-.023438 1.296875.085937 1.9375l7.320313 29.292969-38.839844 85.457031c-.460938 1.042969-.691406 2.171875-.679688 3.3125h16.761719zm0 0" fill="#e66a1f"/><path d="m335.28125 227.3125c.746094-1.644531.917969-3.496094.480469-5.25l-7.515625-30.0625h-16.09375c-.054688.644531-.023438 1.296875.085937 1.9375l7.320313 29.292969-38.839844 85.457031c-.460938 1.042969-.691406 2.171875-.679688 3.3125h16.761719zm0 0" fill="#e66a1f"/><path d="m363.390625 203.289062c-5.171875-4.050781-11.050781-7.101562-17.335937-9.007812-.65625 1.550781-.789063 3.277344-.375 4.910156l9.824218 35.785156-34.734375 73.597657c-.492187 1.074219-.738281 2.238281-.714843 3.417969h16.800781l34.402343-72.871094c.816407-1.730469.984376-3.695313.476563-5.535156zm0 0" fill="#e66a1f"/><path d="m400 368h-136v-88c0-17.671875 14.328125-32 32-32h50.65625c29.460938 0 53.34375 23.882812 53.34375 53.34375zm0 0" fill="#fd7422"/><path d="m296 280h50.65625c29.460938 0 53.34375 23.882812 53.34375 53.34375v34.65625h-136v-56c0-17.671875 14.328125-32 32-32zm0 0" fill="#fd9226"/><path d="m319.28125 283.3125c.746094-1.644531.917969-3.496094.480469-5.25l-7.515625-30.0625h-16.09375c-.054688.644531-.023438 1.296875.085937 1.9375l7.320313 29.292969-38.839844 85.457031c-.460938 1.042969-.691406 2.171875-.679688 3.3125h16.761719zm0 0" fill="#d85021"/><path d="m351.28125 283.3125c.746094-1.644531.917969-3.496094.480469-5.25l-7.515625-30.0625h-16.09375c-.054688.644531-.023438 1.296875.085937 1.9375l7.320313 29.292969-38.839844 85.457031c-.460938 1.042969-.691406 2.171875-.679688 3.3125h16.761719zm0 0" fill="#d85021"/><path d="m379.390625 259.289062c-5.171875-4.050781-11.050781-7.101562-17.335937-9.007812-.65625 1.550781-.789063 3.277344-.375 4.910156l9.824218 35.785156-34.734375 73.597657c-.492187 1.074219-.738281 2.238281-.714843 3.417969h16.800781l34.402343-72.871094c.816407-1.730469.984376-3.695313.476563-5.535156zm0 0" fill="#d85021"/><path d="m240 32h192v136h-192zm0 0" fill="#b6534f"/><path d="m32 208h208v224h-208zm0 0" fill="#8f563b"/><path d="m416 424h-136v-88c0-17.671875 14.328125-32 32-32h50.65625c29.460938 0 53.34375 23.882812 53.34375 53.34375zm0 0" fill="#fd7422"/><path d="m312 336h50.65625c29.460938 0 53.34375 23.882812 53.34375 53.34375v34.65625h-136v-56c0-17.671875 14.328125-32 32-32zm0 0" fill="#fd9226"/><path d="m335.28125 339.3125c.746094-1.644531.917969-3.496094.480469-5.25l-7.515625-30.0625h-16.09375c-.054688.644531-.023438 1.296875.085937 1.9375l7.320313 29.292969-38.839844 85.457031c-.460938 1.042969-.691406 2.171875-.679688 3.3125h16.761719zm0 0" fill="#e66a1f"/><path d="m367.28125 339.3125c.746094-1.644531.917969-3.496094.480469-5.25l-7.515625-30.0625h-16.09375c-.054688.644531-.023438 1.296875.085937 1.9375l7.320313 29.292969-38.839844 85.457031c-.460938 1.042969-.691406 2.171875-.679688 3.3125h16.761719zm0 0" fill="#e66a1f"/><path d="m395.390625 315.289062c-5.171875-4.050781-11.050781-7.101562-17.335937-9.007812-.65625 1.550781-.789063 3.277344-.375 4.910156l9.824218 35.785156-34.734375 73.597657c-.492187 1.074219-.738281 2.238281-.714843 3.417969h16.800781l34.402343-72.871094c.816407-1.730469.984376-3.695313.476563-5.535156zm0 0" fill="#e66a1f"/><path d="m131.671875 375.777344-8.054687 4.117187c-9.695313 4.96875-21.078126 5.445313-31.15625 1.3125-10.078126-4.132812-17.84375-12.464843-21.261719-22.808593l-9.359375-28.230469c-5.796875-17.46875 2.015625-36.554688 18.398437-44.945313 16.386719-8.367187 36.429688-3.539062 47.203125 11.378906l17.414063 24.117188c6.378906 8.816406 8.59375 19.976562 6.058593 30.558594-2.535156 10.582031-9.5625 19.53125-19.242187 24.5zm0 0" fill="#f9f9f9"/><path d="m88.0625 353.144531c-6.03125-11.804687-1.351562-26.261719 10.449219-32.292969 11.804687-6.03125 26.261719-1.355468 32.292969 10.449219 6.03125 11.800781 1.355468 26.257813-10.445313 32.292969-11.800781 6.03125-26.261719 1.355469-32.296875-10.449219zm0 0" fill="#fd7422"/><path d="m177.9375 256.96875c0 9.371094-7.597656 16.96875-16.96875 16.96875s-16.96875-7.597656-16.96875-16.96875 7.597656-16.96875 16.96875-16.96875 16.96875 7.597656 16.96875 16.96875zm0 0" fill="#764731"/><path d="m172.96875 256.96875c0 6.625-5.375 12-12 12-6.628906 0-12-5.375-12-12 0-6.628906 5.371094-12 12-12 6.625 0 12 5.371094 12 12zm0 0" fill="#99d8aa"/><path d="m212.96875 316c0 9.371094-7.597656 16.96875-16.96875 16.96875s-16.96875-7.597656-16.96875-16.96875 7.597656-16.96875 16.96875-16.96875 16.96875 7.597656 16.96875 16.96875zm0 0" fill="#764731"/><path d="m212.96875 277.945312c0 9.371094-7.597656 16.964844-16.96875 16.964844s-16.96875-7.59375-16.96875-16.964844c0-9.371093 7.597656-16.96875 16.96875-16.96875s16.96875 7.597657 16.96875 16.96875zm0 0" fill="#764731"/><g fill="#533222"><path d="m184 360h16v16h-16zm0 0"/><path d="m160 392h16v16h-16zm0 0"/><path d="m56 392h16v16h-16zm0 0"/><path d="m200 392h16v16h-16zm0 0"/><path d="m64 240h16v16h-16zm0 0"/></g><path d="m32 32h208v176h-208zm0 0" fill="#62666a"/><path d="m96 32h80c35.347656 0 64 28.652344 64 64v48c0 35.347656-28.652344 64-64 64h-80c-35.347656 0-64-28.652344-64-64v-48c0-35.347656 28.652344-64 64-64zm0 0" fill="#f9f9f9"/><path d="m87.480469 96.472656c-2.472657 0-4.804688-1.144531-6.320313-3.097656l-6.953125-8.933594c-1.8125-2.253906-2.269531-5.308594-1.195312-7.992187 1.074219-2.683594 3.511719-4.582031 6.378906-4.960938 2.867187-.375 5.714844.820313 7.449219 3.136719l6.953125 8.933594c1.875 2.414062 2.214843 5.683594.871093 8.425781-1.339843 2.746094-4.128906 4.488281-7.183593 4.488281zm0 0" fill="#d9d9d9"/><path d="m208.304688 95.671875c-1.902344 0-3.746094-.675781-5.191407-1.910156l-8.609375-7.363281c-3.363281-2.871094-3.761718-7.925782-.886718-11.285157 2.871093-3.363281 7.925781-3.761719 11.285156-.890625l8.609375 7.34375c2.550781 2.175782 3.476562 5.710938 2.316406 8.855469s-4.15625 5.234375-7.507813 5.234375zm0 0" fill="#cdcdcd"/><path d="m144 80c-3.234375 0-6.152344-1.949219-7.390625-4.9375s-.550781-6.429688 1.734375-8.71875l8-8c3.140625-3.03125 8.128906-2.988281 11.214844.097656 3.085937 3.085938 3.128906 8.074219.097656 11.214844l-8 8c-1.5 1.5-3.535156 2.34375-5.65625 2.34375zm0 0" fill="#d9d9d9"/><path d="m64 144c-3.234375 0-6.152344-1.949219-7.390625-4.9375s-.550781-6.429688 1.734375-8.71875l8-8c3.140625-3.03125 8.128906-2.988281 11.214844.097656 3.085937 3.085938 3.128906 8.074219.097656 11.214844l-8 8c-1.5 1.5-3.535156 2.34375-5.65625 2.34375zm0 0" fill="#b9b9b9"/><path d="m192 176c-3.234375 0-6.152344-1.949219-7.390625-4.9375s-.550781-6.429688 1.734375-8.71875l8-8c3.140625-3.03125 8.128906-2.988281 11.214844.097656 3.085937 3.085938 3.128906 8.074219.097656 11.214844l-8 8c-1.5 1.5-3.535156 2.34375-5.65625 2.34375zm0 0" fill="#d9d9d9"/><path d="m80 184c-3.234375 0-6.152344-1.949219-7.390625-4.9375s-.550781-6.429688 1.734375-8.71875l8-8c3.140625-3.03125 8.128906-2.988281 11.214844.097656 3.085937 3.085938 3.128906 8.074219.097656 11.214844l-8 8c-1.5 1.5-3.535156 2.34375-5.65625 2.34375zm0 0" fill="#d9d9d9"/><path d="m200 136c-2.121094 0-4.15625-.84375-5.65625-2.34375l-8-8c-3.03125-3.140625-2.988281-8.128906.097656-11.214844 3.085938-3.085937 8.074219-3.128906 11.214844-.097656l8 8c2.285156 2.289062 2.972656 5.730469 1.734375 8.71875s-4.15625 4.9375-7.390625 4.9375zm0 0" fill="#d9d9d9"/><path d="m152 184c-2.121094 0-4.15625-.84375-5.65625-2.34375l-8-8c-3.03125-3.140625-2.988281-8.128906.097656-11.214844 3.085938-3.085937 8.074219-3.128906 11.214844-.097656l8 8c2.285156 2.289062 2.972656 5.730469 1.734375 8.71875s-4.15625 4.9375-7.390625 4.9375zm0 0" fill="#cdcdcd"/><path d="m160 120c0 13.253906-10.746094 24-24 24s-24-10.746094-24-24 10.746094-24 24-24 24 10.746094 24 24zm0 0" fill="#e85244"/><path d="m368 64c13.253906 0 24 10.746094 24 24v24c0 13.253906-10.746094 24-24 24s-24-10.746094-24-24v-24c0-13.253906 10.746094-24 24-24zm0 0" fill="#5e8569"/><path d="m344 64c13.253906 0 24 10.746094 24 24v24c0 13.253906-10.746094 24-24 24s-24-10.746094-24-24v-24c0-13.253906 10.746094-24 24-24zm0 0" fill="#6b9777"/><path d="m320 64c13.253906 0 24 10.746094 24 24v24c0 13.253906-10.746094 24-24 24s-24-10.746094-24-24v-24c0-13.253906 10.746094-24 24-24zm0 0" fill="#da922a"/><path d="m296 64c13.253906 0 24 10.746094 24 24v24c0 13.253906-10.746094 24-24 24s-24-10.746094-24-24v-24c0-13.253906 10.746094-24 24-24zm0 0" fill="#fbb540"/><path d="m121.433594 342.222656c0 6.628906-5.375 12-12 12-6.628906 0-12-5.371094-12-12 0-6.625 5.371094-12 12-12 6.625 0 12 5.375 12 12zm0 0" fill="#fd9226"/><path d="m208 276c0 6.628906-5.371094 12-12 12s-12-5.371094-12-12 5.371094-12 12-12 12 5.371094 12 12zm0 0" fill="#85bc94"/><path d="m208 316c0 6.628906-5.371094 12-12 12s-12-5.371094-12-12 5.371094-12 12-12 12 5.371094 12 12zm0 0" fill="#6b9777"/></svg>