<?xml version="1.0" encoding="iso-8859-1"?>
<!-- Generator: Adobe Illustrator 22.1.0, SVG Export Plug-In . SVG Version: 6.00 Build 0)  -->
<svg xmlns="http://www.w3.org/2000/svg" xmlns:xlink="http://www.w3.org/1999/xlink" version="1.1" id="Layer_1_1_" x="0px" y="0px" viewBox="0 0 64 64" style="enable-background:new 0 0 64 64;" xml:space="preserve" width="512" height="512">
<g>
	<g>
		<path style="fill:#FFEAA7;" d="M61.58,53.95c0.28,0.69,0.42,1.43,0.42,2.18c0,3.24-2.63,5.87-5.87,5.87H55l1.2-1.2    c1.15-1.15,1.8-2.72,1.8-4.35c0-0.95-0.22-1.89-0.65-2.75L56,51v-5h4c0,2.64,0.5,5.26,1.49,7.71L61.58,53.95z"/>
		<path style="fill:#FFEAA7;" d="M51,62h-1.13c-1.62,0-3.09-0.66-4.15-1.72C44.66,59.22,44,57.75,44,56.13    c0-0.75,0.14-1.49,0.42-2.18l0.09-0.24C45.5,51.26,46,48.64,46,46h4v5l-1.35,2.7C48.22,54.56,48,55.5,48,56.45    c0,1.63,0.65,3.2,1.8,4.35L51,62z"/>
		<path style="fill:#FCD770;" d="M57.35,53.7c0.43,0.86,0.65,1.8,0.65,2.75c0,1.63-0.65,3.2-1.8,4.35L55,62h-4l-1.2-1.2    c-1.15-1.15-1.8-2.72-1.8-4.35c0-0.95,0.22-1.89,0.65-2.75L50,51v-5h6v5L57.35,53.7z"/>
		<polygon style="fill:#CCD1D9;" points="60,42 60,46 56,46 50,46 46,46 46,42   "/>
		<path style="fill:#E6E9ED;" d="M60,42H46c0-1.15,0.74-2.11,1.77-2.47c-0.01-0.05-0.02-0.1-0.02-0.15c0-1.45,1.18-2.63,2.63-2.63    c0.05,0,0.1,0.01,0.15,0.02C50.89,35.74,51.85,35,53,35s2.11,0.74,2.47,1.77c0.05-0.01,0.1-0.02,0.15-0.02    c1.45,0,2.63,1.18,2.63,2.63c0,0.05-0.01,0.1-0.02,0.15C59.26,39.89,60,40.85,60,42z"/>
		<path style="fill:#D3A06C;" d="M38,32v2c0,0.55-0.45,1-1,1h-1H6H5c-0.55,0-1-0.45-1-1v-2c0-0.55,0.45-1,1-1h32    C37.55,31,38,31.45,38,32z"/>
		<path style="fill:#DFB28B;" d="M36.37,38.92L36,39h-5H6l-0.37-0.08C5.88,37.63,6,36.32,6,35h30C36,36.32,36.12,37.63,36.37,38.92z    "/>
		<path style="fill:#CF9E76;" d="M38.8,45.61c0.79,1.57,1.2,3.31,1.2,5.06c0,3.13-1.27,5.96-3.32,8.01S31.8,62,28.67,62H26    l2.93-1.76c1.28-0.77,2.07-2.16,2.07-3.66c0-1.05-0.17-2.09-0.5-3.08c-0.16-0.48-0.24-0.99-0.24-1.5s0.08-1.02,0.24-1.5L31,49    c-1.99,0-3.96,0.32-5.85,0.95L25,50c0-1.28-0.51-2.51-1.41-3.41l-0.18-0.18C22.51,45.51,22,44.28,22,43l-1.57,0.94    C18.3,45.22,17,47.52,17,50l-0.15-0.05C14.96,49.32,12.99,49,11,49l0.5,1.5c0.32,0.97,0.32,2.03,0,3c-0.33,0.99-0.5,2.03-0.5,3.08    c0,1.5,0.79,2.89,2.07,3.66L16,62h-2.67C7.07,62,2,56.93,2,50.67c0-1.75,0.41-3.49,1.2-5.06l0.56-1.14    c0.88-1.76,1.51-3.63,1.87-5.55L6,39h25h5l0.37-0.08c0.36,1.92,0.99,3.79,1.87,5.55L38.8,45.61z"/>
		<path style="fill:#FF826E;" d="M24.07,59.93c0.6-0.6,0.93-1.4,0.93-2.24c0-1.06-0.53-2.04-1.41-2.63    c-1.04-0.69-1.89-1.65-2.45-2.77L21,52l-0.14,0.29c-0.56,1.12-1.41,2.08-2.45,2.77C17.53,55.65,17,56.63,17,57.69    c0,0.84,0.33,1.64,0.93,2.24L20,62h-4l-2.93-1.76C11.79,59.47,11,58.08,11,56.58c0-1.05,0.17-2.09,0.5-3.08    c0.32-0.97,0.32-2.03,0-3L11,49c1.99,0,3.96,0.32,5.85,0.95L17,50c0-2.48,1.3-4.78,3.43-6.06L22,43c0,1.28,0.51,2.51,1.41,3.41    l0.18,0.18C24.49,47.49,25,48.72,25,50l0.15-0.05C27.04,49.32,29.01,49,31,49l-0.5,1.5c-0.16,0.48-0.24,0.99-0.24,1.5    s0.08,1.02,0.24,1.5c0.33,0.99,0.5,2.03,0.5,3.08c0,1.5-0.79,2.89-2.07,3.66L26,62h-4L24.07,59.93z"/>
		<path style="fill:#FC6E51;" d="M25,57.69c0,0.84-0.33,1.64-0.93,2.24L22,62h-2l-2.07-2.07c-0.6-0.6-0.93-1.4-0.93-2.24    c0-1.06,0.53-2.04,1.41-2.63c1.04-0.69,1.89-1.65,2.45-2.77L21,52l0.14,0.29c0.56,1.12,1.41,2.08,2.45,2.77    C24.47,55.65,25,56.63,25,57.69z"/>
		<polygon style="fill:#B4DD7F;" points="62,2 62,18 58,18 58,15 58,5 58,2   "/>
		<path style="fill:#F0D0B4;" d="M36,13v1l-6.38,6.38c-0.4,0.4-0.94,0.62-1.5,0.62c-0.58,0-1.12-0.24-1.5-0.62    C26.24,20,26,19.46,26,18.88v-0.07c0-0.52,0.19-1.02,0.54-1.41L31,13H36z"/>
		<path style="fill:#F0D0B4;" d="M48,9v8c0,1.1-0.9,2-2,2s-2-0.9-2-2V9c0-1.1,0.9-2,2-2c0.55,0,1.05,0.22,1.41,0.59    C47.78,7.95,48,8.45,48,9z"/>
		<path style="fill:#F0D0B4;" d="M44,9v8c0,1.1-0.9,2-2,2s-2-0.9-2-2V9c0-1.1,0.9-2,2-2c0.55,0,1.05,0.22,1.41,0.59    C43.78,7.95,44,8.45,44,9z"/>
		<path style="fill:#F0D0B4;" d="M50.84,16.58C50.29,16.86,49.68,17,49.06,17H48V9c0-0.55-0.22-1.05-0.59-1.41    C47.05,7.22,46.55,7,46,7c-1.1,0-2,0.9-2,2c0-0.55-0.22-1.05-0.59-1.41C43.05,7.22,42.55,7,42,7c-1.1,0-2,0.9-2,2    c0-0.55-0.22-1.05-0.59-1.41C39.05,7.22,38.55,7,38,7c-1.1,0-2,0.9-2,2H25c0-2.21,1.79-4,4-4h4.43c1.02,0,2.01-0.33,2.82-0.94    C38.02,2.72,40.18,2,42.4,2h0.06c1.03,0,2.04,0.15,3.01,0.44c2.25,0.68,6.46,1.94,7.97,2.39C53.82,4.94,54.2,5,54.59,5H58v10    h-3.06c-0.62,0-1.23,0.14-1.78,0.42L50.84,16.58z"/>
		<path style="fill:#F0D0B4;" d="M40,9v8c0,1.1-0.9,2-2,2s-2-0.9-2-2v-3v-1V9c0-1.1,0.9-2,2-2c0.55,0,1.05,0.22,1.41,0.59    C39.78,7.95,40,8.45,40,9z"/>
		<path style="fill:#CCD1D9;" d="M25,9h11v4h-5h-8.58c0.37-0.61,0.58-1.29,0.58-2s-0.21-1.39-0.58-2H25z"/>
		<path style="fill:#E6E9ED;" d="M20,15.1c-1.13,0.57-2.51,0.9-4,0.9s-2.87-0.33-4-0.9c-1.82-0.9-3-2.4-3-4.1c0-2.76,3.13-5,7-5    c2.87,0,5.34,1.24,6.41,3h0.01C22.79,9.61,23,10.29,23,11s-0.21,1.39-0.58,2h-0.01C21.9,13.85,21.06,14.58,20,15.1z"/>
	</g>
	<g>
		<rect x="11" y="21" width="2" height="4"/>
		<rect x="19" y="21" width="2" height="4"/>
		<rect x="15" y="12" width="2" height="10"/>
		<rect x="15" y="24" width="2" height="2"/>
		<path d="M57,1v3h-2.413c-0.293,0-0.58-0.042-0.856-0.125l-7.973-2.393C44.692,1.162,43.583,1,42.403,1    c-2.421,0-4.819,0.802-6.753,2.258C35.016,3.737,34.228,4,33.433,4H29c-2.414,0-4.434,1.721-4.899,4h-1.163    C21.529,6.162,18.879,5,16,5c-4.411,0-8,2.691-8,6c0,1.844,1.11,3.562,3,4.692V19h2v-4.519l-0.554-0.276    C10.915,13.441,10,12.243,10,11c0-2.168,2.748-4,6-4c2.439,0,4.623,0.99,5.562,2.522L21.854,10H35v2H21.854l-0.292,0.478    c-0.414,0.676-1.108,1.271-2.009,1.722L19,14.477V19h2v-3.314c0.785-0.469,1.442-1.041,1.938-1.686h5.623l-2.768,2.73    C25.282,17.302,25,18.041,25,18.879C25,20.6,26.4,22,28.121,22c0.822,0,1.626-0.333,2.207-0.914L35,16.414V17c0,1.654,1.346,3,3,3    c0.771,0,1.468-0.301,2-0.78c0.532,0.48,1.229,0.78,2,0.78s1.468-0.301,2-0.78c0.532,0.48,1.229,0.78,2,0.78    c1.302,0,2.402-0.839,2.816-2h0.24c0.772,0,1.546-0.183,2.236-0.528l2.311-1.155C54.017,16.109,54.481,16,54.944,16H57v3h6V1H57z     M28.914,19.672C28.705,19.88,28.416,20,28.121,20C27.503,20,27,19.497,27,18.809c0-0.276,0.101-0.541,0.241-0.7L31.41,14h3.176    L28.914,19.672z M38,18c-0.552,0-1-0.449-1-1v-3V9c0-0.551,0.448-1,1-1s1,0.449,1,1v8C39,17.551,38.552,18,38,18z M42,18    c-0.552,0-1-0.449-1-1V9c0-0.551,0.448-1,1-1s1,0.449,1,1v8C43,17.551,42.552,18,42,18z M47,17c0,0.551-0.448,1-1,1s-1-0.449-1-1    V9c0-0.551,0.448-1,1-1s1,0.449,1,1V17z M54.944,14c-0.772,0-1.546,0.183-2.236,0.528l-2.311,1.155    C49.983,15.891,49.519,16,49.056,16H49V9c0-1.654-1.346-3-3-3c-0.771,0-1.468,0.301-2,0.78C43.468,6.301,42.771,6,42,6    s-1.468,0.301-2,0.78C39.468,6.301,38.771,6,38,6c-1.302,0-2.402,0.839-2.816,2h-9C26.598,6.839,27.698,6,29,6h4.433    c1.227,0,2.441-0.406,3.421-1.144c2.31-1.739,5.514-2.303,8.328-1.458l7.974,2.393C53.618,5.93,54.1,6,54.587,6H57v8H54.944z     M61,17h-2V3h2V17z"/>
		<path d="M39.131,44.024c-1.246-2.49-1.962-5.246-2.102-8.027C38.118,35.981,39,35.092,39,34v-2c0-1.103-0.897-2-2-2H5    c-1.103,0-2,0.897-2,2v2c0,1.092,0.882,1.981,1.971,1.997c-0.14,2.782-0.856,5.538-2.102,8.027l-0.568,1.137    C1.45,46.864,1,48.771,1,50.674C1,57.471,6.529,63,13.326,63h15.348C35.471,63,41,57.471,41,50.674c0-1.903-0.45-3.81-1.301-5.513    L39.131,44.024z M5,32h32l0.002,2H5V32z M12.449,50.186l-0.043-0.129c1.401,0.112,2.783,0.394,4.121,0.84L18,51.391V50    c0-2.118,1.128-4.11,2.944-5.2l0.29-0.174c0.273,0.936,0.778,1.801,1.473,2.495l0.172,0.172C23.592,48.006,24,48.992,24,50v1.391    l1.471-0.494c1.34-0.446,2.722-0.728,4.123-0.84l-0.043,0.129c-0.391,1.17-0.391,2.459,0,3.629C29.849,54.709,30,55.641,30,56.584    c0,1.141-0.608,2.215-1.587,2.802L25.723,61h-1.309l0.367-0.367C25.567,59.847,26,58.803,26,57.691    c0-1.394-0.692-2.688-1.853-3.462c-0.897-0.598-1.627-1.424-2.108-2.388L21,49.758l-1.038,2.083    c-0.482,0.965-1.212,1.791-2.11,2.389C16.692,55.004,16,56.298,16,57.691c0,1.111,0.433,2.155,1.219,2.941L17.586,61h-1.309    l-2.69-1.614C12.608,58.799,12,57.725,12,56.584c0-0.943,0.151-1.875,0.449-2.77C12.84,52.645,12.84,51.355,12.449,50.186z     M18.633,59.219C18.225,58.811,18,58.269,18,57.691c0-0.724,0.359-1.396,0.962-1.798c0.787-0.524,1.477-1.182,2.038-1.938    c0.562,0.756,1.251,1.413,2.037,1.938C23.641,56.296,24,56.968,24,57.691c0,0.577-0.225,1.119-0.633,1.527L21.586,61h-1.172    L18.633,59.219z M29.659,60.95C31.105,59.979,32,58.335,32,56.584c0-1.159-0.186-2.304-0.553-3.402    c-0.254-0.762-0.254-1.602,0-2.363L32.388,48H31c-1.745,0-3.473,0.232-5.15,0.692c-0.246-1.057-0.784-2.041-1.557-2.813    l-0.172-0.172C23.408,44.994,23,44.008,23,43v-1.767l-3.085,1.852c-2.033,1.22-3.418,3.291-3.805,5.597    C14.445,48.229,12.731,48,11,48H9.612l0.94,2.818c0.254,0.762,0.254,1.602,0,2.363C10.186,54.28,10,55.425,10,56.584    c0,1.751,0.895,3.395,2.341,4.366C7.107,60.452,3,56.036,3,50.674c0-1.595,0.377-3.191,1.09-4.618l0.568-1.137    C5.439,43.358,6.029,41.702,6.423,40H29v-2H6.786c0.091-0.664,0.154-1.331,0.185-2h28.059c0.031,0.669,0.094,1.336,0.185,2H31v2    h4.577c0.394,1.702,0.984,3.358,1.765,4.919l0.568,1.137c0.713,1.427,1.09,3.023,1.09,4.618C39,56.036,34.893,60.452,29.659,60.95    z"/>
		<path d="M62.414,53.343C61.476,50.997,61,48.527,61,46v-4c0-1.292-0.693-2.468-1.782-3.11c-0.217-1.611-1.496-2.891-3.107-3.107    C55.468,34.693,54.292,34,53,34s-2.468,0.693-3.11,1.782c-1.611,0.217-2.891,1.496-3.107,3.107C45.693,39.532,45,40.708,45,42v4    c0,2.527-0.476,4.997-1.413,7.342l-0.096,0.237C43.165,54.395,43,55.253,43,56.131C43,59.919,46.081,63,49.869,63h6.262    C59.919,63,63,59.919,63,56.131c0-0.878-0.165-1.736-0.492-2.553L62.414,53.343z M56.456,54.148C56.812,54.86,57,55.657,57,56.452    c0,1.376-0.536,2.67-1.509,3.643L54.586,61h-3.172l-0.905-0.905C49.536,59.122,49,57.828,49,56.452    c0-0.795,0.188-1.592,0.544-2.304L51,51.236V47h4v4.236L56.456,54.148z M47,45v-2h12v2H47z M48.094,40.476l0.712-0.247    l-0.042-0.753c-0.002-0.051-0.008-0.101-0.014-0.101c0-0.896,0.729-1.625,1.575-1.626l0.903,0.057l0.247-0.712    C51.703,36.439,52.315,36,53,36s1.297,0.439,1.524,1.094l0.247,0.712l0.753-0.042c0.051-0.002,0.101-0.008,0.101-0.014    c0.896,0,1.625,0.729,1.626,1.575l-0.057,0.903l0.712,0.247c0.296,0.103,0.54,0.293,0.727,0.524H47.367    C47.554,40.768,47.797,40.579,48.094,40.476z M45,56.131c0-0.623,0.117-1.231,0.348-1.809l0.096-0.237    c0.909-2.271,1.399-4.652,1.509-7.085H49v3.764l-1.245,2.49C47.261,54.243,47,55.349,47,56.452c0,1.58,0.516,3.078,1.457,4.314    C46.463,60.156,45,58.321,45,56.131z M57.543,60.766C58.484,59.53,59,58.032,59,56.452c0-1.104-0.261-2.209-0.755-3.198L57,50.764    V47h2.047c0.111,2.433,0.601,4.814,1.51,7.086l0.094,0.235C60.883,54.899,61,55.508,61,56.131    C61,58.321,59.537,60.156,57.543,60.766z"/>
	</g>
</g>
</svg>
