<svg id="Capa_1" enable-background="new 0 0 508 508" height="512" viewBox="0 0 508 508" width="512" xmlns="http://www.w3.org/2000/svg"><g><path d="m254 435.462c-5.523 0-10-4.478-10-10v-33.462c0-5.522 4.477-10 10-10 11.194 0 22.806-9.387 21.969-23.184-.694-11.434-10.042-20.581-21.51-20.812-11.137-.188-20.71 7.906-22.247 18.914-.141 1.012-.212 2.048-.212 3.082 0 5.522-4.477 10-10 10s-10-4.478-10-10c0-1.956.136-3.923.405-5.846 2.935-21.035 21.182-36.559 42.457-36.146 21.901.44 39.786 17.919 41.08 39.771 1.123 18.952-11.264 37.93-31.942 43v24.683c0 5.522-4.477 10-10 10zm210-147.462v200c0 11.028-8.972 20-20 20h-380c-11.028 0-20-8.972-20-20v-200c0-5.522 4.477-10 10-10h10v-13.141c0-5.52 4.49-10 10-10s10 4.48 10 10v13.141h131v-26c0-25.187 18-46.249 41.812-50.998 4.249-23.291 24.689-41.002 49.188-41.002h48c7.583 0 14.776 1.697 21.221 4.73-9.368-14.475-25.554-24.73-45.221-24.73h-192.03c-23.84 0-44.583 15.296-51.59 38.08-3.903 12.692-23.023 6.812-19.12-5.88 9.369-30.123 37.534-52.2 70.74-52.2h16v-90c0-16.542 13.458-30 30-30h100c16.542 0 30 13.458 30 30v90h16c47.065 0 74.677 40.355 74 74v7.397c22.907 5.431 40 26.058 40 50.603v26h10c5.523 0 10 4.478 10 10zm-230-208c24.027 0 46.055 11.335 60 29.949v-49.949h-120v49.949c13.945-18.614 35.973-29.949 60-29.949zm-42.462 40h84.925c-10.269-12.48-25.703-20-42.462-20s-32.195 7.52-42.463 20zm-17.538-80h120v-10c0-5.514-4.486-10-10-10h-100c-5.514 0-10 4.486-10 10zm103.714 160h104.572c-4.127-11.64-15.249-20-28.286-20h-48c-13.037 0-24.159 8.36-28.286 20zm-42.714 78h189v-26c0-17.645-14.355-32-32-32h-125c-17.645 0-32 14.355-32 32zm209.013 209.999-.013-189.999h-380v190h380c.009 0 .013-.001.013-.001zm-370.013-258.14c5.51 0 10-4.489 10-10 0-5.52-4.49-10-10-10s-10 4.48-10 10c0 5.511 4.49 10 10 10zm180 217.835c-5.692 0-10.306 4.614-10.306 10.306s4.614 10.306 10.306 10.306 10.306-4.614 10.306-10.306-4.614-10.306-10.306-10.306z"/></g></svg>