<?xml version="1.0" encoding="iso-8859-1"?>
<!-- Generator: Adobe Illustrator 19.0.0, SVG Export Plug-In . SVG Version: 6.00 Build 0)  -->
<svg version="1.1" id="Layer_1" xmlns="http://www.w3.org/2000/svg" xmlns:xlink="http://www.w3.org/1999/xlink" x="0px" y="0px"
	 viewBox="0 0 380.316 380.316" style="enable-background:new 0 0 380.316 380.316;" xml:space="preserve">
<g>
	<path style="fill:#333E48;" d="M295.34,27.5c0-11-9-20-20-20H104.977c-11,0-20,9-20,20v325.316c0,11,9,20,20,20H275.34
		c11,0,20-9,20-20V27.5z"/>
	<rect x="84.977" y="43.808" style="fill:#61B4E4;" width="210.363" height="285.343"/>
	<path style="fill:#FFFFFF;" d="M248.75,215.63c11.619-13.519,18.658-31.089,18.658-50.313c0-42.664-34.586-77.25-77.25-77.25
		s-77.25,34.586-77.25,77.25s34.586,77.25,77.25,77.25c11.525,0,22.45-2.542,32.273-7.067c8.036,5.003,17.518,7.901,27.68,7.901
		c5.938,0,11.639-1.002,16.961-2.82C258.687,234.357,252.241,225.685,248.75,215.63z"/>
	<polygon style="opacity:0.1;fill:#FFFFFF;enable-background:new    ;" points="84.977,275.498 84.977,329.15 218.199,329.15 
		295.34,252.01 295.34,65.135 	"/>
	<path style="fill:#071C2C;" d="M163.465,173.931v-0.11c0-6.729-4.413-9.543-12.246-11.584c-6.674-1.71-8.329-2.537-8.329-5.075
		v-0.109c0-1.876,1.71-3.365,4.964-3.365c2.648,0,5.295,0.938,8.109,2.593c0.662,0.386,1.324,0.606,2.151,0.606
		c2.206,0,3.971-1.71,3.971-3.916c0-1.655-0.938-2.813-1.875-3.365c-3.475-2.206-7.557-3.42-12.246-3.42
		c-7.888,0-13.514,4.634-13.514,11.639v0.11c0,7.668,5.02,9.818,12.797,11.805c6.454,1.654,7.777,2.758,7.777,4.909v0.11
		c0,2.262-2.096,3.641-5.571,3.641c-3.751,0-6.951-1.324-9.874-3.476c-0.552-0.386-1.324-0.771-2.427-0.771
		c-2.206,0-3.971,1.71-3.971,3.916c0,1.324,0.662,2.537,1.6,3.199c4.302,3.089,9.432,4.634,14.507,4.634
		C157.618,185.9,163.465,181.598,163.465,173.931z M174.99,185.68c2.317,0,4.192-1.82,4.192-4.137v-19.196l7.336,11.308
		c0.883,1.324,1.986,2.151,3.53,2.151c1.545,0,2.648-0.827,3.53-2.151l7.447-11.473v19.251c0,2.316,1.875,4.247,4.191,4.247
		c2.372,0,4.248-1.876,4.248-4.247v-30.67c0-2.372-1.876-4.247-4.248-4.247h-0.938c-1.71,0-2.923,0.717-3.806,2.151l-10.315,16.769
		l-10.26-16.714c-0.772-1.269-2.041-2.206-3.861-2.206h-0.938c-2.372,0-4.248,1.875-4.248,4.247v30.78
		C170.853,183.859,172.673,185.68,174.99,185.68z M190.158,360.316c5.523,0,10-4.477,10-10c0-5.522-4.477-10-10-10s-10,4.478-10,10
		C180.158,355.84,184.635,360.316,190.158,360.316z M217.957,181.267c4.303,3.089,9.433,4.634,14.507,4.634
		c8.329,0,14.177-4.303,14.177-11.97v-0.11c0-6.729-4.413-9.543-12.246-11.584c-6.674-1.71-8.329-2.537-8.329-5.075v-0.109
		c0-1.876,1.71-3.365,4.965-3.365c2.647,0,5.295,0.938,8.108,2.593c0.662,0.386,1.324,0.606,2.151,0.606
		c2.206,0,3.972-1.71,3.972-3.916c0-1.655-0.938-2.813-1.876-3.365c-3.475-2.206-7.557-3.42-12.245-3.42
		c-7.889,0-13.515,4.634-13.515,11.639v0.11c0,7.668,5.02,9.818,12.797,11.805c6.454,1.654,7.778,2.758,7.778,4.909v0.11
		c0,2.262-2.097,3.641-5.571,3.641c-3.751,0-6.95-1.324-9.874-3.476c-0.552-0.386-1.324-0.771-2.427-0.771
		c-2.207,0-3.972,1.71-3.972,3.916C216.357,179.392,217.02,180.604,217.957,181.267z M275.34,0H104.977
		c-15.164,0-27.5,12.337-27.5,27.5v325.316c0,15.163,12.336,27.5,27.5,27.5H275.34c15.163,0,27.5-12.337,27.5-27.5V27.5
		C302.84,12.337,290.503,0,275.34,0z M287.84,352.816c0,6.893-5.607,12.5-12.5,12.5H104.977c-6.893,0-12.5-5.607-12.5-12.5V336.65
		H287.84V352.816z M287.84,321.65H92.477V51.308H287.84V321.65z M287.84,36.308H92.477V27.5c0-6.893,5.607-12.5,12.5-12.5H275.34
		c6.893,0,12.5,5.607,12.5,12.5V36.308z M190.158,250.066c11.006,0,21.684-2.08,31.796-6.189c8.643,4.605,18.297,7.023,28.157,7.023
		c6.604,0,13.126-1.084,19.386-3.223c2.637-0.901,4.557-3.189,4.985-5.942c0.43-2.753-0.703-5.518-2.94-7.178
		c-6.202-4.604-11.057-10.636-14.202-17.607c11.36-14.77,17.568-32.93,17.568-51.634c0-46.731-38.019-84.75-84.75-84.75
		s-84.75,38.019-84.75,84.75S143.427,250.066,190.158,250.066z M190.158,95.566c38.46,0,69.75,31.29,69.75,69.75
		c0,16.653-5.982,32.786-16.846,45.425c-1.741,2.026-2.273,4.825-1.397,7.349c2.258,6.505,5.575,12.501,9.807,17.79
		c-8.832,0.267-17.58-2.081-25.076-6.748c-1.208-0.752-2.583-1.133-3.964-1.133c-1.068,0-2.139,0.228-3.138,0.688
		c-9.189,4.232-18.991,6.379-29.136,6.379c-38.46,0-69.75-31.29-69.75-69.75S151.698,95.566,190.158,95.566z M203.492,18.325
		h-26.667c-4.142,0-7.5,3.357-7.5,7.5s3.358,7.5,7.5,7.5h26.667c4.143,0,7.5-3.357,7.5-7.5S207.635,18.325,203.492,18.325z
		 M156.659,18.325c-4.142,0-7.5,3.358-7.5,7.5s3.358,7.5,7.5,7.5s7.5-3.358,7.5-7.5S160.801,18.325,156.659,18.325z"/>
</g>
<g>
</g>
<g>
</g>
<g>
</g>
<g>
</g>
<g>
</g>
<g>
</g>
<g>
</g>
<g>
</g>
<g>
</g>
<g>
</g>
<g>
</g>
<g>
</g>
<g>
</g>
<g>
</g>
<g>
</g>
</svg>
