<svg height="512" viewBox="0 0 64 64" width="512" xmlns="http://www.w3.org/2000/svg"><g id="Delivery_Cart" data-name="Delivery Cart"><path d="m41 30h14v19h-14z" fill="#2488ff"/><path d="m21 32h20v17h-20z" fill="#ffda44"/><path d="m35 11h14l1 15h-16z" fill="#c0ab91"/><path d="m16 15v4h-11a2.006 2.006 0 0 1 -2-2 2.015 2.015 0 0 1 2-2z" fill="#57565c"/><path d="m12 19h4v30h-4z" fill="#e0e0e2"/><circle cx="51" cy="57" fill="#3e3d42" r="4"/><circle cx="25" cy="57" fill="#3e3d42" r="4"/><path d="m34 32v7l-3-2-3 2v-7z" fill="#ff9811"/><path d="m24 24h17v8h-17z" fill="#f072ae"/><path d="m24 20h17v4h-17z" fill="#ea348b"/><path d="m41 26h16v4h-16z" fill="#78b9eb"/><path d="m45 42h7v3h-7z" fill="#ffeb99"/><path d="m12 49h49v4h-49z" fill="#acabb1"/><circle cx="51" cy="57" r="2"/><circle cx="25" cy="57" r="2"/><path d="m61 48h-5v-17h1a1 1 0 0 0 1-1v-4a1 1 0 0 0 -1-1h-6.06l-.94-14.07a1 1 0 0 0 -1-.93h-2v-1a5 5 0 0 0 -10 0v1h-2a1 1 0 0 0 -1 .93l-.54 8.07h-9.46a1 1 0 0 0 -1 1v11h-2a1 1 0 0 0 -1 1v16h-3v-33a1 1 0 0 0 -1-1h-11a3 3 0 0 0 0 6h6v33a1 1 0 0 0 1 1h9.03a4.924 4.924 0 0 0 -1.03 3 5 5 0 0 0 10 0 4.924 4.924 0 0 0 -1.03-3h18.06a4.924 4.924 0 0 0 -1.03 3 5 5 0 0 0 10 0 4.924 4.924 0 0 0 -1.03-3h6.03a1 1 0 0 0 1-1v-4a1 1 0 0 0 -1-1zm-5-21v2h-14v-2zm-2 4v17h-12v-17zm-15-22a3 3 0 0 1 6 0v1h-6zm-3.06 3h1.06v2h2v-2h6v2h2v-2h1.06l.87 13h-6.93v-5a1 1 0 0 0 -1-1h-5.53zm-10.94 9h15v2h-15zm0 4h15v6h-15zm8 8v4.13l-1.45-.96a.975.975 0 0 0 -1.1 0l-1.45.96v-4.13zm-11 0h5v6a.984.984 0 0 0 .53.88.963.963 0 0 0 1.02-.05l2.45-1.63 2.45 1.63a1 1 0 0 0 1.55-.83v-6h5v15h-18zm-17-15a1 1 0 0 1 0-2h10v2zm10 2v28h-2v-28zm10 40a3 3 0 1 1 3-3 3.009 3.009 0 0 1 -3 3zm26 0a3 3 0 1 1 3-3 3.009 3.009 0 0 1 -3 3zm9-8h-47v-2h47z"/><path d="m45 46h7a1 1 0 0 0 1-1v-3a1 1 0 0 0 -1-1h-7a1 1 0 0 0 -1 1v3a1 1 0 0 0 1 1zm1-3h5v1h-5z"/></g></svg>