<svg id="Layer_2" height="512" viewBox="0 0 128 128" width="512" xmlns="http://www.w3.org/2000/svg" data-name="Layer 2"><rect fill="#025f80" height="124.5" rx="6" width="53.5" x="37.25" y="1.75"/><path d="m37.25 33h53.5v77.833h-53.5z" fill="#a3da59"/><path d="m70.734 9.498h-13.468l-10.008-7.748h33.484z" fill="#a3da59"/><path d="m64 27.251a1.75 1.75 0 0 1 -1.75-1.75v-7.501a1.75 1.75 0 0 1 3.5 0v7.5a1.75 1.75 0 0 1 -1.75 1.751z" fill="#d1f1f8"/><path d="m13.746 41.681.754-4.581.754 4.578a9 9 0 0 0 7.418 7.422l4.578.754-4.578.754a9 9 0 0 0 -7.418 7.418l-.754 4.574-.754-4.578a9 9 0 0 0 -7.418-7.418l-4.578-.751 4.578-.753a9 9 0 0 0 7.418-7.419z" fill="#ffd70d"/><path d="m112.746 6.328.754-4.578.754 4.578a9 9 0 0 0 7.418 7.418l4.578.754-4.578.754a9 9 0 0 0 -7.418 7.418l-.754 4.578-.754-4.578a9 9 0 0 0 -7.418-7.418l-4.578-.754 4.578-.754a9 9 0 0 0 7.418-7.418z" fill="#ffd70d"/><path d="m37.25 41.679h53.5v60.475h-53.5z" fill="#d1f1f8"/><path d="m78.708 71.917c0-1.8-1.78-3.372-4.442-4.253 1.26-2.5 1.407-4.875.134-6.148s-3.642-1.125-6.148.134c-.88-2.662-2.453-4.442-4.252-4.442s-3.372 1.78-4.252 4.442c-2.506-1.259-4.876-1.406-6.148-.134s-1.126 3.643.134 6.148c-2.662.881-4.442 2.453-4.442 4.253s1.78 3.371 4.442 4.252c-1.26 2.505-1.407 4.876-.134 6.148s3.642 1.126 6.148-.134c.88 2.662 2.453 4.442 4.252 4.442s3.372-1.78 4.252-4.442c2.506 1.26 4.876 1.406 6.148.134s1.126-3.643-.134-6.148c2.662-.881 4.442-2.453 4.442-4.252z" fill="#ff62b4"/><path d="m64.917 73.667h-1.834a1.75 1.75 0 0 1 0-3.5h1.834a1.75 1.75 0 0 1 0 3.5z" fill="#ffef9e"/></svg>