<?xml version="1.0" encoding="iso-8859-1"?>
<!-- Generator: Adobe Illustrator 19.0.0, SVG Export Plug-In . SVG Version: 6.00 Build 0)  -->
<svg version="1.1" id="Capa_1" xmlns="http://www.w3.org/2000/svg" xmlns:xlink="http://www.w3.org/1999/xlink" x="0px" y="0px"
	 viewBox="0 0 512 512" style="enable-background:new 0 0 512 512;" xml:space="preserve">
<circle style="fill:#7AE5FE;" cx="256" cy="256" r="256"/>
<path style="fill:#00BED2;" d="M512,256c0-20.44-2.41-40.316-6.935-59.372l-83.398-83.398l-82.598,186.931l-288.452,15.32
	l196.342,196.343c3.003,0.104,6.013,0.176,9.041,0.176C397.385,512,512,397.385,512,256z"/>
<rect x="185.58" y="113.23" style="fill:#E15050;" width="236.09" height="273.77"/>
<rect x="306.55" y="113.23" style="fill:#A13939;" width="115.12" height="273.77"/>
<rect x="205.19" y="195.51" style="fill:#FF6472;" width="196.87" height="127.66"/>
<rect x="306.55" y="195.51" style="fill:#E15050;" width="95.51" height="127.66"/>
<path style="fill:#FFEC7C;" d="M223.645,356.499l-71.778-71.778l28.007-28.007c24.174-24.174,63.369-24.174,87.543,0l28.007,28.007
	L223.645,356.499z"/>
<path style="fill:#FFDE1F;" d="M295.424,284.721l-28.007-28.007c-12.197-12.197-28.217-18.231-44.202-18.12v117.475l0.431,0.431
	L295.424,284.721z"/>
<polygon style="fill:#FFFFFF;" points="50.617,275.493 50.617,315.482 148.666,315.482 148.666,366.237 295.548,366.237 
	295.548,275.493 "/>
<rect x="223.21" y="275.49" style="fill:#E0E0E0;" width="72.33" height="90.74"/>
<g>
</g>
<g>
</g>
<g>
</g>
<g>
</g>
<g>
</g>
<g>
</g>
<g>
</g>
<g>
</g>
<g>
</g>
<g>
</g>
<g>
</g>
<g>
</g>
<g>
</g>
<g>
</g>
<g>
</g>
</svg>
